<svg xmlns="http://www.w3.org/2000/svg" width="523" height="525" fill="none"><g clip-path="url(#a)"><path fill="#000" d="M474.962 421.918c-41.119-28.219-80.284-59.28-123.061-85.038-12.67-7.632-23.456 12.638-10.848 20.229 42.767 25.757 81.932 56.818 123.062 85.038 12.178 8.36 22.893-11.961 10.847-20.229z"/><path fill="#000" d="M469.948 444.639c-2.037 0-4.124-.687-6.12-2.061-14.389-9.868-28.757-20.26-42.665-30.302-25.84-18.67-52.571-37.975-80.366-54.716-6.826-4.113-7.133-11.714-3.909-17.1 2.804-4.677 8.77-7.919 15.279-4.011 27.836 16.762 54.566 36.077 80.427 54.757 13.898 10.043 28.276 20.434 42.655 30.292 3.827 2.626 5.813 6.78 5.455 11.396-.359 4.688-3.112 9.048-6.857 10.843a8.909 8.909 0 0 1-3.909.902h.01zM346.262 335.7c-3.644 0-6.693 2.278-8.494 5.273-2.968 4.944-2.702 11.93 3.551 15.695 27.836 16.761 54.577 36.077 80.438 54.767 13.897 10.042 28.276 20.423 42.644 30.291 3.828 2.626 7.01 2.042 9.006 1.077 3.418-1.641 5.946-5.662 6.273-9.991.328-4.247-1.504-8.063-5.014-10.473-14.389-9.868-28.768-20.26-42.675-30.312-25.841-18.67-52.561-37.975-80.357-54.716-1.872-1.128-3.694-1.621-5.383-1.621l.011.01z"/><path fill="#FF8717" d="M454.311 436.782c12.29 10.135 21.613 15.1 28.818 16.361 19.946 3.468 23.886-21.428 30.855-44.006 7.123-22.978 14.573-57.793.44-71.652-4.738-4.667-11.974-6.965-22.504-5.611-41.744 5.355-22.197 71.57-22.197 71.57l-3.367-1.826c.337-1.005.286-4.729-.972-7.581-1.536-3.477-5.486-5.58-8.484-5.354-7.205.554-11.206 14.72-13.345 22.3-1.986 7.027-6.632 23.501-.389 27.43 1.238.78 4.308 1.949 11.145-1.631z"/><path fill="#000" d="M486.762 453.984c-1.177 0-2.415-.112-3.715-.338-7.706-1.354-17.121-6.668-28.788-16.259-4.943 2.524-8.862 3.026-11.359 1.457-6.57-4.134-1.853-20.865.164-28.004 2.179-7.725 6.242-22.096 13.795-22.681 3.09-.236 7.296 1.816 8.985 5.653 1.156 2.636 1.351 6.041 1.095 7.529l1.965 1.067c-1.76-6.668-9.753-40.16 2.313-58.696 4.574-7.027 11.513-11.181 20.631-12.351 10.019-1.282 17.735.647 22.924 5.755 7.716 7.57 13.938 26.23-.307 72.175-.921 2.995-1.801 6.062-2.661 9.037-5.25 18.3-10.234 35.656-25.052 35.656h.01zm-32.39-17.807.256.215c11.646 9.602 21 14.915 28.573 16.249 16.855 2.923 22.074-15.295 27.611-34.59a492.275 492.275 0 0 1 2.66-9.058c6.366-20.536 14.901-57.085.563-71.138-4.953-4.873-12.383-6.709-22.074-5.468-8.812 1.129-15.504 5.129-19.905 11.899-13.11 20.147-1.975 58.635-1.863 59.014l.348 1.18-4.83-2.616.143-.41c.277-.831.297-4.38-.962-7.212-1.494-3.375-5.291-5.262-7.972-5.047-6.846.524-10.776 14.454-12.884 21.932-1.955 6.924-6.529 23.131-.614 26.855 2.22 1.395 5.905.831 10.643-1.651l.297-.154h.01z"/><path fill="#000" d="m454.72 437.1-.829-.595s3.582-5.088 7.112-16.751l.983.297c-3.582 11.859-7.113 16.854-7.266 17.059v-.01zm10.193-29.009-.88-.523s1.525-2.657 1.75-6.812l1.023.052c-.246 4.421-1.832 7.16-1.893 7.273v.01z"/><path fill="#fff" d="M472.793 352.452a15.3 15.3 0 0 1 .624-2.134 25.49 25.49 0 0 1 .86-2.062c.307-.677.726-1.303 1.095-1.959.399-.626.839-1.241 1.269-1.867 1.821-2.411 4.237-4.38 6.928-5.796.665-.39 1.392-.626 2.108-.882.717-.246 1.423-.554 2.18-.667l2.221-.461c.747-.082 1.504-.093 2.261-.113l1.126-.031c.369.02.747.072 1.116.113l2.22.236c.737.102 1.443.359 2.16.533.716.185 1.422.39 2.118.605l-.02.103c-1.443-.226-2.866-.544-4.309-.708l-2.18-.102c-.368-.011-.726-.041-1.095-.041l-1.084.092c-.727.072-1.454.113-2.17.195l-2.129.482c-.716.123-1.381.431-2.067.677-.685.256-1.371.492-1.985.882-2.6 1.282-4.912 3.16-6.775 5.396-1.852 2.236-3.367 4.79-4.37 7.529l-.102-.031v.011zm10.469 100.476a7.17 7.17 0 0 0 1.73.718c4.554 1.231 10.162-2.021 13.252-5.139 9.682-9.807 11.831-26.722 15.73-39.36 7.123-22.978 13.601-58.47.44-71.652-12.086-12.104-22.535 29.215-24.613 37.544-4.973 19.972-9.036 40.806-10.418 61.261-.358 5.282-1.586 13.437 3.879 16.628z"/><path fill="#000" d="M487.079 454.415a8.37 8.37 0 0 1-2.21-.287 7.868 7.868 0 0 1-1.853-.769c-5.229-3.057-4.666-10.289-4.247-15.572.041-.533.082-1.046.113-1.539 1.208-17.961 4.626-38.036 10.428-61.352 3.459-13.879 10.541-37.534 19.158-39.924 2.17-.605 4.288.123 6.314 2.144 12.414 12.422 7.983 45.432-.307 72.164-.9 2.934-1.709 6.063-2.558 9.376-2.712 10.586-5.782 22.578-13.304 30.189-2.855 2.893-7.399 5.56-11.534 5.56v.01zm-3.551-1.928a6.657 6.657 0 0 0 1.607.667c4.052 1.087 9.476-1.693 12.751-5.006 7.328-7.417 10.357-19.265 13.038-29.728.849-3.323 1.658-6.462 2.569-9.427 8.197-26.455 12.649-59.034.563-71.138-1.771-1.775-3.5-2.391-5.312-1.888-6.017 1.672-12.567 15.592-18.441 39.185-5.792 23.265-9.19 43.268-10.398 61.179-.03.492-.071 1.015-.112 1.549-.389 5.005-.932 11.868 3.745 14.607h-.01z"/><path fill="#000" d="m494.161 358.516-.062 1.024 27.692 1.693.062-1.024-27.692-1.693zm-5.24 22.276-.034 1.025 31.799 1.08.034-1.025-31.799-1.08zm-4.482 22.166-.096 1.021 31.39 2.98.096-1.021-31.39-2.98zm-4.024 24.792-.077 1.023 27.123 2.068.078-1.023-27.124-2.068zM47.894 413.784c42.993-25.266 84.225-53.506 128.691-76.207 13.171-6.729 22.514 14.249 9.405 20.937-44.466 22.701-85.698 50.93-128.69 76.206-12.732 7.478-22.003-13.541-9.406-20.936z"/><path fill="#000" d="M51.998 436.813c-3.766 0-6.877-2.339-8.678-5.416-3.326-5.683-2.62-13.982 4.308-18.054 15.023-8.832 30.088-18.188 44.66-27.225 27.1-16.823 55.12-34.22 84.061-48.992 3.736-1.908 7.553-1.815 10.746.267 3.653 2.38 5.946 7.068 5.7 11.684-.225 4.339-2.558 7.857-6.58 9.909-28.89 14.751-56.9 32.138-83.979 48.951-14.573 9.047-29.647 18.402-44.68 27.245-1.956 1.149-3.828 1.641-5.558 1.641v-.01zm-3.848-22.578c-6.375 3.744-7.01 11.407-3.94 16.649 2.2 3.764 6.877 6.903 12.833 3.405 15.034-8.832 30.098-18.187 44.661-27.224 27.099-16.823 55.119-34.221 84.05-48.992 3.674-1.877 5.813-5.088 6.018-9.048.225-4.257-1.883-8.585-5.24-10.77-2.876-1.867-6.324-1.949-9.722-.216-28.9 14.751-56.9 32.138-83.99 48.951-14.572 9.048-29.636 18.403-44.68 27.245h.01z"/><path fill="#FF8717" d="M58.855 439.9c-13.57 8.35-23.487 11.971-30.784 12.238-20.232.687-20.723-24.506-24.53-47.833-3.91-23.736-6.52-59.249 9.394-71.036 5.343-3.969 12.813-5.252 23.057-2.462 40.619 11.048 12.179 73.95 12.179 73.95l3.581-1.344c-.204-1.046.369-4.719 2.006-7.376 1.996-3.231 6.192-4.769 9.129-4.133 7.061 1.538 9.077 16.125 10.162 23.931 1.003 7.232 3.346 24.188-3.377 27.225-1.33.605-4.534 1.333-10.817-3.149v-.011z"/><path fill="#000" d="M27.253 452.661c-17.265 0-19.967-18.936-22.832-38.96-.44-3.056-.89-6.226-1.392-9.314-7.808-47.463.911-65.097 9.59-71.528 5.843-4.339 13.743-5.191 23.496-2.544 8.873 2.41 15.177 7.488 18.749 15.079 9.404 20.023-3.101 52.1-5.762 58.46l2.098-.79c-.041-1.508.604-4.852 2.118-7.304 2.2-3.569 6.652-5.026 9.681-4.359 7.41 1.61 9.456 16.412 10.551 24.362 1.024 7.355 3.408 24.578-3.673 27.768-2.682 1.211-6.499.175-11.053-3.005-12.874 7.888-22.934 11.858-30.742 12.135-.277 0-.553.01-.83.01v-.01zM25.86 329.833c-4.953 0-9.17 1.282-12.618 3.846-16.129 11.941-12.68 49.32-9.19 70.544.511 3.108.962 6.278 1.402 9.335 2.793 19.572 5.434 38.077 21.839 38.077.255 0 .511 0 .767-.01 7.686-.277 17.674-4.257 30.528-12.156l.286-.174.276.195c4.36 3.108 7.922 4.185 10.316 3.098 6.376-2.873 4.063-19.562 3.08-26.691-1.064-7.704-3.05-22.034-9.762-23.501-2.62-.575-6.652.759-8.587 3.898-1.627 2.636-2.098 6.155-1.934 7.016l.082.431-5.148 1.928.512-1.128c.164-.369 16.466-36.949 6.243-58.716-3.429-7.304-9.518-12.197-18.083-14.525-3.603-.985-6.939-1.467-9.999-1.467h-.01z"/><path fill="#000" d="M58.404 440.146c-.122-.225-2.926-5.652-4.86-17.9l1.013-.164c1.893 12.043 4.717 17.521 4.748 17.572l-.9.482v.01zm-6.119-30.127c-.051-.123-1.239-3.057-.88-7.468l1.023.082c-.338 4.145.798 6.955.808 6.986l-.941.39-.01.01z"/><path fill="#fff" d="M52.008 353.836c-.49-1.385-.992-2.739-1.688-4.011-.287-.656-.676-1.272-1.003-1.897-.369-.616-.768-1.2-1.146-1.806-1.607-2.328-3.551-4.421-5.895-5.949-2.272-1.59-4.85-2.821-7.624-3.416l-1.024-.298c-.348-.061-.706-.102-1.054-.153l-2.128-.308c-1.433-.185-2.876-.144-4.35-.308v-.103c1.453-.041 2.917-.164 4.37-.133l2.19.185c.369.031.727.051 1.095.102l1.075.236c.716.164 1.432.308 2.139.482l2.057.77c.706.215 1.33.615 1.975.954.644.348 1.3.677 1.873 1.138 2.415 1.662 4.451 3.868 5.986 6.36 1.525 2.503 2.661 5.252 3.265 8.125l-.102.02-.01.01zm-24.049 98.056a7.029 7.029 0 0 1-1.812.471c-4.676.585-9.793-3.405-12.423-6.913-8.249-11.048-8.054-28.107-10.183-41.145-3.9-23.737-5.465-59.793 9.384-71.036 13.632-10.319 18.319 32.046 19.23 40.58 2.19 20.465 3.356 41.668 1.913 62.122-.368 5.283-.276 13.52-6.12 15.941l.01-.02z"/><path fill="#000" d="M25.216 452.938c-4.482 0-9.22-3.601-11.892-7.181-6.406-8.575-7.798-20.885-9.036-31.738-.389-3.395-.747-6.606-1.249-9.642-4.543-27.625-4.41-60.932 9.59-71.528 2.282-1.724 4.482-2.155 6.55-1.262 8.207 3.559 11.983 27.963 13.508 42.191 2.558 23.901 3.183 44.252 1.924 62.214-.03.492-.062 1.005-.092 1.539-.307 5.282-.737 12.524-6.345 14.833a7.53 7.53 0 0 1-1.945.502 8.107 8.107 0 0 1-1.003.062l-.01.01zM17.01 332.161c-1.198 0-2.436.503-3.766 1.508-13.632 10.33-13.693 43.217-9.2 70.544.5 3.057.87 6.278 1.248 9.694 1.218 10.729 2.6 22.885 8.842 31.235 2.794 3.734 7.798 7.242 11.943 6.719a6.735 6.735 0 0 0 1.678-.431c5.015-2.062 5.414-8.935 5.71-13.951.031-.533.062-1.056.093-1.549 1.258-17.9.634-38.19-1.914-62.029-2.59-24.188-7.164-38.867-12.895-41.36a4.399 4.399 0 0 0-1.75-.369l.01-.011z"/><path fill="#000" d="m2.468 354.735-.078 1.022 27.662 2.139.078-1.023-27.662-2.138zM.63 376.32l-.106 1.02 31.645 3.312.106-1.02L.63 376.32zm1.503 24.565-.044 1.025 31.5 1.373.045-1.025-31.5-1.373zm4.976 24.779-.063 1.024 27.139 1.688.063-1.024-27.139-1.688z"/><path fill="#5A0CE1" d="M406.672 41.842H106.289c-9.01 0-16.313 7.32-16.313 16.35v288.956c0 9.031 7.303 16.351 16.313 16.351h300.383c9.009 0 16.313-7.32 16.313-16.351V58.193c0-9.03-7.304-16.351-16.313-16.351z"/><path fill="#000" d="M406.672 364.002H106.299c-9.282 0-16.825-7.57-16.825-16.864V58.193c0-9.294 7.553-16.864 16.825-16.864h300.383c9.282 0 16.825 7.57 16.825 16.864v288.955c0 9.304-7.553 16.864-16.825 16.864l-.01-.01zM106.299 42.355c-8.71 0-15.801 7.109-15.801 15.838v288.955c0 8.73 7.092 15.838 15.801 15.838h300.383c8.709 0 15.801-7.108 15.801-15.838V58.193c0-8.73-7.092-15.838-15.801-15.838H106.299z"/><path fill="#5A0CE1" d="M373.719 77.314H139.252c-5.873 0-10.633 4.771-10.633 10.657V317.35c0 5.886 4.76 10.658 10.633 10.658h234.467c5.872 0 10.633-4.772 10.633-10.658V87.971c0-5.886-4.761-10.657-10.633-10.657z"/><path fill="#000" d="M373.719 328.53H139.252c-6.151 0-11.145-5.016-11.145-11.171V87.982c0-6.165 5.004-11.171 11.145-11.171h234.467c6.151 0 11.145 5.016 11.145 11.17V317.36c0 6.165-5.005 11.171-11.145 11.171zM139.252 77.827c-5.578 0-10.122 4.554-10.122 10.145v229.377c0 5.601 4.544 10.145 10.122 10.145h234.467c5.578 0 10.121-4.555 10.121-10.145V87.982c0-5.6-4.543-10.145-10.121-10.145H139.252v-.01z"/><path fill="#FC0" d="M157.662 128.152h-35.214v14.905h35.214v-14.905z"/><path fill="#000" d="M158.174 143.57h-36.238v-15.931h36.238v15.931zm-35.215-1.026h34.192v-13.879h-34.192v13.879z"/><path fill="#FC0" d="M157.662 262.274h-35.214v14.905h35.214v-14.905z"/><path fill="#000" d="M158.174 277.692h-36.238v-15.931h36.238v15.931zm-35.215-1.026h34.192v-13.879h-34.192v13.879z"/><path fill="#FC0" d="M365.86 235.325c13.457-13.488 13.457-35.357 0-48.845-13.456-13.488-35.273-13.488-48.73 0-13.456 13.488-13.456 35.357 0 48.845 13.457 13.488 35.274 13.488 48.73 0z"/><path fill="#000" d="M341.503 245.954c-19.281 0-34.969-15.725-34.969-35.051s15.688-35.051 34.969-35.051 34.969 15.725 34.969 35.051-15.688 35.051-34.969 35.051zm0-69.077c-18.718 0-33.946 15.264-33.946 34.026 0 18.762 15.228 34.025 33.946 34.025 18.718 0 33.946-15.263 33.946-34.025s-15.228-34.026-33.946-34.026z"/><path fill="#FC0" d="M361.252 214.189c1.77-10.927-5.633-21.222-16.534-22.996-10.902-1.774-21.174 5.646-22.943 16.573-1.77 10.927 5.633 21.223 16.534 22.997 10.902 1.774 21.174-5.647 22.943-16.574z"/><path fill="#000" d="M341.503 231.521c-11.308 0-20.509-9.221-20.509-20.556s9.201-20.557 20.509-20.557 20.509 9.222 20.509 20.557c0 11.335-9.201 20.556-20.509 20.556zm0-40.087c-10.746 0-19.485 8.76-19.485 19.531 0 10.77 8.739 19.531 19.485 19.531 10.746 0 19.485-8.761 19.485-19.531 0-10.771-8.739-19.531-19.485-19.531zm-.798-12.003h-1.024v8.884h1.024v-8.884z"/><path fill="#000" d="M340.705 179.431h-1.024v8.884h1.024v-8.884zm0 53.67h-1.024v8.883h1.024v-8.883zm-22.852-22.906h-8.863v1.026h8.863v-1.026zm53.543 0h-8.862v1.026h8.862v-1.026zm-52.907-21.947-.723.725 6.266 6.282.724-.726-6.267-6.281zm37.861 37.933-.723.726 6.266 6.281.724-.725-6.267-6.282zm5.54-37.957-6.266 6.282.723.725 6.267-6.281-.724-.726zm-37.855 37.951-6.266 6.281.723.725 6.267-6.281-.724-.725z"/><path fill="#FC0" d="M359.791 275.363v-13.827h-62.979v13.827h62.979z"/><path fill="#000" d="M360.313 275.876H296.31v-14.853h64.003v14.853zm-62.979-1.025h61.955v-12.802h-61.955v12.802z"/><path fill="#FC0" d="M361.971 276.102c4.685 0 8.483-3.807 8.483-8.504 0-4.696-3.798-8.504-8.483-8.504-4.686 0-8.484 3.808-8.484 8.504 0 4.697 3.798 8.504 8.484 8.504z"/><path fill="#000" d="M361.971 276.625c-4.964 0-8.996-4.041-8.996-9.016 0-4.976 4.032-9.017 8.996-9.017 4.963 0 8.995 4.041 8.995 9.017 0 4.975-4.032 9.016-8.995 9.016zm0-17.018c-4.401 0-7.973 3.591-7.973 7.991 0 4.401 3.582 7.991 7.973 7.991 4.39 0 7.972-3.59 7.972-7.991 0-4.4-3.582-7.991-7.972-7.991z"/><path fill="#fff" d="M257.841 128.326c15.74-.082 26.301-8.36 40.762-8.626 8.115-.154 16.057 1.364 16.896 10.678 1.535 17.049-10.244 29.245-25.001 37.072-19.056 10.094-41.703 10.822-61.792 2.995-16.917-6.595-34.826-18.423-32.411-38.713 1.105-9.283 8.545-11.017 16.661-11.037 14.46-.031 30.476 7.703 44.885 7.631z"/><path fill="#000" d="M256.675 176.262c-9.436 0-18.994-1.775-28.164-5.345-16.312-6.349-35.225-18.32-32.728-39.246 1.208-10.146 9.815-11.469 17.173-11.489h.092c7.256 0 14.992 1.949 22.463 3.836 7.399 1.867 15.044 3.796 22.136 3.796h.184c8.044-.041 14.798-2.267 21.317-4.422 6.355-2.092 12.363-4.072 19.434-4.205 7.041-.144 16.487.872 17.408 11.14.942 10.524-2.671 25.593-25.267 37.564-10.49 5.56-22.177 8.371-34.048 8.371zm-43.627-55.055h-.092c-7.369.021-15.044 1.283-16.159 10.576-1.331 11.192 3.152 26.907 32.083 38.17 20.426 7.95 42.787 6.873 61.362-2.975 12.198-6.462 26.393-18.054 24.725-36.569-.84-9.314-9.201-10.35-16.374-10.207-6.919.134-12.854 2.093-19.138 4.155-6.601 2.174-13.427 4.431-21.634 4.472h-.195c-7.225 0-14.931-1.949-22.391-3.826-7.42-1.867-15.085-3.806-22.218-3.806l.031.01z"/><path fill="#000" d="M228.204 170.568a86.335 86.335 0 0 1-2.589-25.285 86.55 86.55 0 0 1 3.971-22.24l.972.308a85.443 85.443 0 0 0-3.92 21.973 85.641 85.641 0 0 0 2.559 24.978l-.993.256v.01zm30.548 5.263a93.352 93.352 0 0 1-3.837-25.173 93.107 93.107 0 0 1 2.425-22.444l.993.236a92.119 92.119 0 0 0-2.395 22.198 92.135 92.135 0 0 0 3.797 24.896l-.983.297v-.01zm31.254-8.217a87.128 87.128 0 0 1-4.687-21.89 87.066 87.066 0 0 1 1.423-24.383l1.003.205a86.134 86.134 0 0 0 3.234 45.719l-.962.339-.011.01z"/><path fill="#fff" d="M371.273 75.94c.471 12.606-.839 24.567-3.49 35.184-.051.123-.04.257-.092.359-.02.103-.051.205-.071.277-.072.359-.164.708-.256 1.067-1.535-.564-3.07-1.098-4.708-1.549a.791.791 0 0 0-.245-.092 65.661 65.661 0 0 0-2.845-.8h-.031c-8.525-2.267-18.257-3.519-28.624-3.457-4.114-.021-8.136.215-12.025.636a35.14 35.14 0 0 0-1.586.174c-8.197.964-15.77 2.739-22.31 5.17a98.227 98.227 0 0 0-3.285 1.303c-3.305-10.197-5.424-21.85-5.843-34.292-1.546-42.11 16.364-77.15 39.953-78.248 13.078-.636 25.154 9.355 33.577 25.48 0 0 0 .021.03.021 1.28 2.462 2.426 5.078 3.5 7.817.123.297.236.544.328.841.174.37.327.77.501 1.16.185.471.389.984.563 1.507.328.79.624 1.61.87 2.452a69.48 69.48 0 0 1 1.095 3.303c.338 1.17.676 2.308.962 3.477a103.34 103.34 0 0 1 2.129 9.715c.174 1.097.378 2.225.552 3.344.031.071.031.153 0 .205a84.25 84.25 0 0 1 .625 4.75c.122 1.076.215 2.205.307 3.333.061.851.143 1.682.194 2.534.031.225.01.4.051.625.092 1.2.164 2.462.184 3.693l-.01.01z"/><path fill="#000" d="m291.367 114.878-.174-.533c-3.438-10.596-5.464-22.506-5.864-34.426-1.545-42.324 16.59-77.662 40.434-78.77 12.69-.616 25.053 8.668 33.905 25.48h.02l.154.298c1.208 2.329 2.364 4.903 3.52 7.868l.103.246c.092.205.174.41.235.636.082.154.174.38.266.605.072.164.133.329.215.493l.154.41c.143.37.296.759.429 1.149.359.872.645 1.682.881 2.482a56.145 56.145 0 0 1 1.084 3.293l.103.36c.297 1.025.604 2.081.859 3.148.829 3.037 1.546 6.32 2.139 9.756.082.523.174 1.046.256 1.569.102.585.195 1.16.287 1.744.03.113.041.236.03.349a84.78 84.78 0 0 1 .614 4.677c.123 1.077.215 2.206.307 3.344.031.431.062.852.103 1.272.03.42.071.841.102 1.272.021.093.021.205.031.329 0 .082 0 .164.02.256a61.42 61.42 0 0 1 .195 3.754c.46 12.3-.717 24.178-3.511 35.318l-.04.144a1.798 1.798 0 0 1-.062.246c-.031.123-.051.205-.072.277-.051.308-.153.677-.255 1.046l-.144.544-.522-.195c-1.432-.523-2.998-1.077-4.676-1.539l-.113-.051-.123-.041c-.931-.287-1.832-.533-2.773-.79l-.102-.02c-8.495-2.257-18.104-3.447-27.826-3.447h-1.136c-3.797 0-7.655.216-11.503.636-.542.051-1.075.092-1.576.175-8.136.964-15.607 2.687-22.208 5.139-1.115.42-2.2.851-3.264 1.292l-.512.216.01-.011zM326.95 2.144c-.378 0-.757 0-1.135.03-23.293 1.088-40.997 35.944-39.462 77.715.389 11.632 2.333 23.244 5.649 33.625.911-.369 1.832-.739 2.784-1.098 6.682-2.482 14.225-4.226 22.432-5.2a35.807 35.807 0 0 1 1.607-.175c4.032-.441 8.085-.656 12.065-.636 10.03-.041 19.926 1.139 28.686 3.457l.102.021c.993.256 1.924.523 2.866.81.071.021.174.051.286.103 1.484.41 2.876.892 4.165 1.364.041-.164.082-.328.113-.492.031-.123.051-.185.072-.257l.051-.143c.02-.134.041-.226.082-.318 2.753-10.987 3.919-22.773 3.459-34.98a51.06 51.06 0 0 0-.184-3.672c-.021-.093-.021-.216-.031-.339 0-.082 0-.164-.021-.256-.03-.472-.071-.882-.102-1.303-.031-.42-.072-.841-.102-1.272a109.663 109.663 0 0 0-.307-3.313 78.128 78.128 0 0 0-.625-4.73l-.02-.153.02-.041c-.092-.595-.194-1.19-.296-1.785a85.411 85.411 0 0 1-.256-1.57c-.584-3.395-1.3-6.647-2.119-9.662-.255-1.057-.552-2.052-.859-3.119l-.103-.359a67.9 67.9 0 0 0-1.084-3.272 25.27 25.27 0 0 0-.86-2.431c-.143-.4-.287-.78-.43-1.139l-.143-.38c-.072-.143-.143-.317-.215-.492-.092-.215-.174-.43-.276-.636-.092-.256-.154-.43-.236-.605l-.112-.267c-1.126-2.892-2.252-5.405-3.418-7.672l-.123-.113v-.113c-8.412-16.054-19.987-25.142-31.92-25.142v.01z"/><path fill="#000" d="m359.637 27.624-.47-.912c11.165-5.735 9.855-19.819 9.834-19.962l1.013-.103c.021.144 1.413 14.915-10.387 20.977h.01zm6.069 13.192-.164-1.016c13.55-2.154 15.914-17.52 15.945-17.674l1.013.144c-.021.164-2.508 16.279-16.794 18.546zm4.308 20.7-.184-1.005c13.57-2.431 16.466-15.848 16.487-15.982l1.003.205c-.031.144-3.06 14.228-17.316 16.782h.01zm-5.71 36.447a69.155 69.155 0 0 1-1.668 13.315.797.797 0 0 0-.246-.092 64.869 64.869 0 0 0-2.845-.8h-.03c-8.525-2.267-18.258-3.519-28.625-3.457-4.114-.021-8.135.215-12.024.636-.543.051-1.075.102-1.586.174-8.198.964-15.771 2.739-22.31 5.17-.993-4.985-1.443-10.33-1.259-15.848.88-28.025 17.377-50.52 36.883-50.254 19.495.246 34.6 23.173 33.72 51.166l-.01-.01z"/><path fill="#000" d="m294.581 113.576-.113-.595a70.744 70.744 0 0 1-1.279-15.962c.88-28.086 17.469-50.746 37.047-50.746h.347c7.4.093 14.399 3.375 20.253 9.5 9.282 9.714 14.502 25.49 13.98 42.2-.133 4.586-.696 9.099-1.679 13.407l-.153.667-.594-.338-.123-.041a82.02 82.02 0 0 0-2.773-.79l-.102-.021c-8.689-2.308-18.564-3.487-28.491-3.446a102.38 102.38 0 0 0-11.974.636c-.542.051-1.074.092-1.576.174-8.136.964-15.606 2.688-22.207 5.139l-.563.205v.011zm35.665-66.277c-19.035 0-35.164 22.219-36.023 49.761a69.558 69.558 0 0 0 1.136 15.141c6.539-2.37 13.887-4.052 21.859-4.985a35.807 35.807 0 0 1 1.607-.175c4.032-.441 8.085-.656 12.065-.636 10.03-.041 19.926 1.139 28.686 3.457l.102.021c.891.236 1.74.472 2.589.728.891-4.072 1.402-8.329 1.535-12.658.512-16.433-4.605-31.933-13.692-41.452-5.649-5.92-12.404-9.1-19.527-9.181h-.337v-.02z"/><path fill="#fff" d="M345.484 82.207c-12.936 2.8-14.379 4.729-15.781 21.008-2.292-16.146-3.848-17.951-16.906-19.767 12.936-2.8 14.379-4.729 15.781-21.008 2.302 16.146 3.848 17.962 16.906 19.767zm-202.968-5.56c.062 12.617 1.873 24.516 4.974 35 .051.123.051.256.113.349.03.102.051.205.081.277.082.348.195.707.307 1.056 1.515-.625 3.019-1.22 4.647-1.754.081-.051.163-.072.245-.102a63.992 63.992 0 0 1 2.804-.924h.031c8.422-2.626 18.093-4.287 28.45-4.667a106.59 106.59 0 0 1 12.035.123c.542.031 1.085.051 1.596.103 8.229.615 15.863 2.072 22.515 4.216 1.136.379 2.251.759 3.336 1.159 2.876-10.33 4.503-22.065 4.39-34.508-.235-42.13-19.597-76.38-43.207-76.483-13.099-.082-24.735 10.402-32.472 26.876 0 0 0 .02-.03.02-1.177 2.514-2.211 5.17-3.163 7.96-.102.298-.215.555-.296.852-.164.38-.297.78-.451 1.18-.163.482-.348 1.005-.501 1.528-.297.8-.553 1.631-.768 2.483a61.742 61.742 0 0 0-.951 3.344c-.287 1.18-.584 2.338-.819 3.518a107.056 107.056 0 0 0-1.719 9.796c-.123 1.108-.287 2.237-.41 3.365-.031.072-.031.154 0 .205a98.354 98.354 0 0 0-.593 8.124c-.021.852-.072 1.683-.092 2.534-.021.226-.001.4-.021.626a63.887 63.887 0 0 0-.031 3.693v.05z"/><path fill="#000" d="m147.664 114.017-.164-.534a22.261 22.261 0 0 1-.317-1.087 2.727 2.727 0 0 1-.072-.215.979.979 0 0 1-.071-.236l-.041-.144c-3.255-11.017-4.933-22.834-4.994-35.144a57.493 57.493 0 0 1 .03-3.723c.011-.123.011-.205.011-.287 0-.124 0-.247.01-.38 0-.39.031-.82.041-1.251.02-.41.03-.821.041-1.242.051-1.138.092-2.277.163-3.364a82.62 82.62 0 0 1 .42-4.698.821.821 0 0 1 .01-.35l.215-1.794c.062-.513.133-1.026.184-1.529.451-3.457 1.024-6.77 1.73-9.858.215-1.066.471-2.102.737-3.2l.082-.328a65.19 65.19 0 0 1 .962-3.375c.194-.77.45-1.6.777-2.513.113-.36.236-.75.369-1.118l.133-.4c.082-.195.143-.37.204-.534.082-.236.174-.462.267-.687.04-.164.112-.36.184-.575l.092-.246c1.033-3.016 2.077-5.631 3.183-8.011l.153-.298C160.108 9.786 172-.01 184.669-.01h.144c23.875.102 43.483 34.64 43.719 76.996.102 11.93-1.413 23.911-4.411 34.651l-.154.533-.522-.195c-1.074-.4-2.179-.779-3.315-1.159-6.693-2.164-14.225-3.58-22.382-4.195a26.884 26.884 0 0 0-1.576-.103 106.431 106.431 0 0 0-11.994-.123c-9.947.369-19.741 1.97-28.327 4.647l-.102.02c-.942.288-1.822.585-2.712.893-.082.02-.123.041-.144.051l-.112.051c-1.658.534-3.193 1.149-4.605 1.734l-.512.215v.011zm-3.909-52.49.02.041-.02.164a95.27 95.27 0 0 0-.43 4.75 110.912 110.912 0 0 0-.164 3.333c-.01.41-.031.831-.041 1.242-.02.43-.041.851-.041 1.282-.01.133-.01.215-.01.297 0 .123 0 .236-.01.37a54.338 54.338 0 0 0-.031 3.62c.061 12.228 1.719 23.953 4.953 34.878.021.03.041.123.062.205l.051.164c.02.082.041.164.071.236.052.195.103.369.154.543a59.909 59.909 0 0 1 4.104-1.538c.122-.062.225-.093.307-.123a64.59 64.59 0 0 1 2.804-.924l.102-.02c8.658-2.688 18.513-4.298 28.512-4.667 3.97-.185 8.033-.144 12.096.123.542.03 1.095.051 1.617.102 8.228.626 15.842 2.052 22.617 4.247.962.318 1.913.646 2.834.975 2.866-10.505 4.329-22.188 4.227-33.831-.235-41.801-19.383-75.878-42.696-75.98h-.143c-12.301 0-23.886 9.642-31.817 26.486v.4h-.204c-1.044 2.277-2.037 4.78-3.019 7.642l-.103.266a4.461 4.461 0 0 0-.184.554c-.113.277-.194.493-.276.708-.062.174-.133.349-.195.523l-.123.38a38.52 38.52 0 0 0-.358 1.108 22.642 22.642 0 0 0-.757 2.462 67.767 67.767 0 0 0-.952 3.344l-.082.328c-.266 1.087-.522 2.103-.726 3.17a104.912 104.912 0 0 0-1.709 9.765c-.062.503-.123 1.016-.185 1.529-.071.605-.153 1.21-.225 1.826l-.03.02z"/><path fill="#000" d="M152.105 27.881c-12.035-5.56-11.267-20.372-11.257-20.526l1.024.062c0 .143-.727 14.268 10.663 19.53l-.43.934zm-5.516 13.438c-14.368-1.662-17.53-17.654-17.561-17.818l1.003-.185c.031.154 3.06 15.418 16.671 16.988l-.123 1.015h.01zm-3.428 20.865c-14.348-1.95-17.971-15.9-18.001-16.033l.992-.247c.031.134 3.5 13.418 17.152 15.274l-.133 1.016-.01-.01zm7.235 36.169c.328 4.605 1.085 9.047 2.231 13.222.082-.051.164-.072.246-.103a65.363 65.363 0 0 1 2.804-.923h.031c8.422-2.626 18.093-4.288 28.45-4.667 4.114-.195 8.146-.134 12.035.123.542.031 1.085.051 1.596.102 8.228.616 15.863 2.073 22.515 4.216a69.605 69.605 0 0 0 .593-15.889c-2.057-27.953-19.495-49.74-38.96-48.653-19.475 1.066-33.598 24.619-31.541 52.551v.02z"/><path fill="#000" d="m152.32 112.375-.184-.667c-1.167-4.267-1.914-8.75-2.241-13.325-1.228-16.669 3.326-32.65 12.188-42.744 5.588-6.36 12.445-9.94 19.834-10.35 19.73-1.129 37.425 20.936 39.502 49.125a70.023 70.023 0 0 1-.604 16.002l-.092.595-.573-.185c-6.703-2.164-14.235-3.58-22.391-4.195a27.84 27.84 0 0 0-1.576-.103 106.687 106.687 0 0 0-11.995-.123c-9.947.369-19.741 1.97-28.327 4.647l-.102.02c-.942.288-1.822.585-2.712.893-.082.02-.123.041-.143.051l-.584.369v-.01zm31.009-66.091c-.45 0-.911.01-1.371.04-7.113.39-13.724 3.847-19.117 10.002-8.679 9.899-13.151 25.593-11.943 41.996a68.48 68.48 0 0 0 2.067 12.586 58.347 58.347 0 0 1 2.548-.831l.103-.02c8.657-2.688 18.513-4.298 28.511-4.667a108.22 108.22 0 0 1 12.096.123c.543.03 1.096.051 1.617.102 7.993.605 15.413 1.97 22.044 4.062a69.47 69.47 0 0 0 .502-15.171c-1.986-26.978-18.452-48.212-37.057-48.212v-.01z"/><path fill="#fff" d="M168.551 81.817c13.038 2.247 14.563 4.114 16.651 20.321 1.617-16.228 3.09-18.105 16.057-20.465-13.038-2.246-14.563-4.113-16.651-20.32-1.617 16.228-3.091 18.105-16.057 20.464z"/><path fill="#FF4A00" d="M257.545 114.991c7.152-.468 12.57-6.659 12.103-13.828-.468-7.168-6.644-12.6-13.796-12.13-7.151.468-12.57 6.659-12.102 13.827.467 7.168 6.644 12.6 13.795 12.131z"/><path fill="#000" d="M256.675 115.546c-3.265 0-6.376-1.17-8.853-3.334a13.48 13.48 0 0 1-4.584-9.273 13.466 13.466 0 0 1 3.295-9.807 13.402 13.402 0 0 1 9.251-4.596 13.397 13.397 0 0 1 9.784 3.303 13.48 13.48 0 0 1 4.585 9.274c.501 7.437-5.127 13.899-12.547 14.402-.307.02-.624.031-.931.031zm.03-26.015c-.286 0-.573 0-.859.031a12.362 12.362 0 0 0-8.545 4.247 12.427 12.427 0 0 0-3.05 9.058 12.408 12.408 0 0 0 4.237 8.565 12.347 12.347 0 0 0 9.036 3.057c6.857-.462 12.056-6.432 11.595-13.305a12.41 12.41 0 0 0-4.237-8.565 12.332 12.332 0 0 0-8.177-3.088z"/><path fill="#078450" d="M190.462 220.935h82.628a.41.41 0 0 1 .409.41V379.06h-83.037V220.935z"/><path fill="#000" d="M274.011 379.573H189.95V220.422h83.14c.511 0 .921.41.921.923v158.228zm-83.037-1.025h82.013v-157.1h-82.013v157.1z"/><path fill="#078450" d="m199.631 206.769-9.067 14.012c-.041.072.01.154.103.154h82.075c.358 0 .593-.329.44-.616l-6.724-13.068-66.827-.482z"/><path fill="#000" d="M272.732 221.448h-82.076a.62.62 0 0 1-.552-.328l-.144-.267.174-.349 9.221-14.248 67.421.482 6.866 13.335a.924.924 0 0 1-.03.893 1.003 1.003 0 0 1-.87.472l-.01.01zm-81.329-1.026h81.257l-6.509-12.658-66.233-.472-8.504 13.13h-.011z"/><path fill="#000" d="M267.768 208.861h-69.805v1.026h69.805v-1.026zm1.494 3.191h-73.274v1.026h73.274v-1.026zm1.31 2.831h-76.498v1.026h76.498v-1.026zm1.627 3.19h-80.294v1.026h80.294v-1.026z"/><path fill="#078450" d="m186.86 225.377 86.117 16.926c-.327 17.192 1.72 20.649 1.136 38.641a1286.049 1286.049 0 0 0 .532 98.127h-84.112c.492-31.851.215-64.871-.982-98.968a1982.459 1982.459 0 0 0-2.681-54.716l-.01-.01z"/><path fill="#000" d="M275.167 379.574h-85.166v-.524c.512-32.835.185-66.122-.972-98.937a1961.34 1961.34 0 0 0-2.681-54.706l-.041-.666 87.192 17.13v.431c-.164 8.186.225 13.305.604 18.259.409 5.386.829 10.956.522 20.383-1.064 32.528-.89 65.538.532 98.086l.021.533-.011.011zm-84.132-1.026h83.058a1294.117 1294.117 0 0 1-.512-97.625c.307-9.375-.092-14.668-.522-20.269-.368-4.893-.757-9.94-.624-17.931l-85.043-16.71a1959.964 1959.964 0 0 1 2.64 54.069 1973.396 1973.396 0 0 1 .982 98.466h.021z"/><path fill="#79CC9E" d="M244.803 245.256c-2.016-1.108-4.308-1.559-6.877-1.354-3.541.257-6.15 1.252-7.9 2.995-1.453 1.498-2.108 3.293-1.965 5.447.041.606.143 1.098.317 1.467a1.416 1.416 0 0 1-.409.082c-.205.021-.43-.102-.645-.379-.215-.267-.348-.8-.409-1.6-.062-.801.061-1.683.358-2.606.297-.944.675-1.621 1.105-2.093-1.34-.707-3.295-.964-5.864-.779-1.34.102-2.558.318-3.653.646-.737 1.026-1.3 2.472-1.689 4.329l-3.49.246c-.982 1.252-1.422 2.565-1.33 3.929.113 1.364.706 2.503 1.842 3.447l2.651-.206c-.225-.42-.338-.738-.359-.933 0-.328.215-.503.655-.544.133-.01.236 0 .267 0 .644 2.144 1.77 3.806 3.407 5.006 1.945 1.416 4.442 2.011 7.502 1.785 1.647-.113 3.09-.492 4.37-1.118 1.248-.646 2.098-1.436 2.527-2.38-.327-.574-.522-1.241-.583-2.052-.123-1.672.471-3.046 1.781-4.134a6.049 6.049 0 0 1 1.586-.984c.604-.257 1.115-.411 1.535-.431.44-.041.706.154.727.605-1.689.503-2.866 1.159-3.562 2.021-.706.851-1.013 1.898-.941 3.149.071 1.252.767 2.236 2.036 3.006 1.269.769 2.835 1.087 4.646.964 1.832-.154 3.552-.677 5.169-1.641a10.792 10.792 0 0 0 1.985-5.006l3.224-.246c.982-1.252 1.422-2.565 1.33-3.929-.092-1.344-.716-2.503-1.811-3.437l-2.671.195c.235.441.348.759.358.934.03.338-.184.523-.655.543-.133.011-.205.021-.266 0-.809-2.195-2.221-3.836-4.268-4.923l-.031-.021z"/><path fill="#000" d="M227.068 264.695c-2.609 0-4.82-.646-6.58-1.928a9.385 9.385 0 0 1-2.896-3.478l-3.582.287-.164-.133c-1.228-1.036-1.893-2.277-2.026-3.806-.103-1.508.389-2.954 1.443-4.298l.143-.174 3.326-.236c.399-1.754.972-3.149 1.689-4.144l.102-.144.164-.051c1.125-.339 2.394-.564 3.756-.667 2.691-.195 4.707.082 6.14.841l.583.308c.143-.185.307-.359.471-.523 1.832-1.826 4.605-2.883 8.228-3.149 2.651-.206 5.055.266 7.153 1.415 2.027 1.077 3.49 2.708 4.37 4.852.062 0 .092-.02.103-.031-.031.021-.082-.194-.348-.697l-.359-.698 3.664-.256.164.133c1.228 1.036 1.893 2.308 1.995 3.796.103 1.497-.388 2.933-1.442 4.277l-.144.175-3.039.225a11.28 11.28 0 0 1-2.016 4.822l-.154.143a12.314 12.314 0 0 1-5.383 1.713c-1.934.134-3.592-.205-4.953-1.026-1.422-.861-2.19-2.01-2.282-3.415-.082-1.365.266-2.544 1.054-3.509a5.318 5.318 0 0 1 1.023-.933 9.937 9.937 0 0 0-.593.441c-1.187.995-1.719 2.205-1.607 3.713.051.698.225 1.303.522 1.837l.123.225-.103.236c-.47 1.046-1.402 1.929-2.752 2.626-1.382.677-2.866 1.057-4.575 1.18-.43.031-.849.051-1.259.051h.041zm-9.302-7.899.112.401c.614 2.051 1.668 3.6 3.214 4.739 1.832 1.333 4.236 1.908 7.163 1.682 1.576-.113 2.937-.462 4.186-1.067 1.054-.543 1.77-1.169 2.17-1.918a5.344 5.344 0 0 1-.522-2.021c-.133-1.826.532-3.364 1.965-4.565a6.233 6.233 0 0 1 1.719-1.056c.675-.287 1.238-.441 1.709-.462.45-.041.726.113.89.257.154.133.348.389.369.841l.02.4-.389.113c-1.596.472-2.681 1.087-3.316 1.846-.624.759-.89 1.672-.818 2.79.061 1.057.655 1.908 1.791 2.606 1.166.708 2.63 1.005 4.339.882a11.316 11.316 0 0 0 4.851-1.518 10.23 10.23 0 0 0 1.832-4.688l.051-.41 3.408-.257c.798-1.087 1.166-2.226 1.084-3.405-.071-1.129-.573-2.124-1.473-2.944l-1.73.123c.062.164.092.307.102.43.041.359-.092.595-.214.729-.195.236-.512.359-.932.379-.153.011-.286.031-.43-.01l-.255-.072-.092-.246c-.768-2.072-2.119-3.642-4.022-4.647-1.924-1.056-4.145-1.487-6.591-1.292-3.428.246-5.905 1.179-7.583 2.841-1.351 1.395-1.955 3.047-1.812 5.047.031.544.123.985.266 1.293l.226.492-.492.205a1.808 1.808 0 0 1-.562.113c-.277.031-.696-.051-1.106-.585-.276-.338-.44-.944-.511-1.877-.062-.882.071-1.826.388-2.8a7.099 7.099 0 0 1 .788-1.724c-1.228-.461-2.916-.625-5.035-.472a16.761 16.761 0 0 0-3.377.585c-.644.944-1.146 2.288-1.504 3.99l-.082.38-3.643.256c-.798 1.088-1.167 2.226-1.085 3.406.102 1.169.594 2.144 1.504 2.954l1.709-.133a2.138 2.138 0 0 1-.102-.431c0-.267.051-1.015 1.116-1.108.112-.01.225 0 .286 0l.409-.03.011-.042zm-.809 1.108s.072.216.317.677l.021.031a7.762 7.762 0 0 1-.276-.738.093.093 0 0 0-.062.02v.01zm12.138-10.719-.348.379c-.4.431-.727 1.067-.993 1.898-.276.851-.389 1.662-.338 2.411.041.625.133.964.205 1.149-.031-.195-.051-.411-.072-.636-.133-1.98.389-3.724 1.546-5.191v-.01z"/><path fill="#79CC9E" d="M245.796 344.553c-2.016-1.108-4.308-1.56-6.877-1.355-3.541.257-6.15 1.252-7.9 2.996-1.454 1.497-2.109 3.293-1.965 5.447.041.605.143 1.097.317 1.467a1.493 1.493 0 0 1-.409.082c-.205.02-.43-.103-.645-.38-.215-.267-.348-.8-.41-1.6-.061-.8.062-1.682.359-2.606.296-.943.675-1.62 1.105-2.092-1.341-.708-3.295-.964-5.864-.78-1.341.103-2.559.318-3.654.646-.736 1.026-1.299 2.473-1.688 4.329l-3.49.246c-.982 1.252-1.422 2.565-1.33 3.929.112 1.365.706 2.503 1.842 3.447l2.65-.205c-.225-.421-.337-.739-.358-.934 0-.328.215-.502.655-.543.133-.011.236 0 .266 0 .645 2.143 1.771 3.805 3.408 5.005 1.945 1.416 4.442 2.011 7.501 1.785 1.648-.113 3.091-.492 4.37-1.118 1.249-.646 2.098-1.436 2.528-2.38-.327-.574-.522-1.251-.583-2.051-.123-1.672.47-3.047 1.78-4.134a6.041 6.041 0 0 1 1.587-.985c.603-.256 1.115-.41 1.535-.431.44-.041.706.154.726.595-1.688.503-2.865 1.159-3.561 2.021-.696.862-1.013 1.898-.942 3.149.082 1.252.758 2.236 2.037 3.006 1.269.769 2.835 1.087 4.646.964 1.832-.154 3.551-.677 5.168-1.641a10.793 10.793 0 0 0 1.986-5.006l3.223-.246c.983-1.252 1.423-2.565 1.331-3.929-.092-1.344-.717-2.503-1.812-3.436l-2.671.194c.236.442.348.76.358.934.031.338-.184.523-.655.544-.133.01-.204.02-.266 0-.808-2.196-2.22-3.837-4.267-4.924l-.031-.01z"/><path fill="#000" d="M228.051 363.981c-2.61 0-4.82-.646-6.57-1.928a9.378 9.378 0 0 1-2.897-3.478l-3.581.288-.164-.134c-1.228-1.036-1.893-2.277-2.026-3.806-.103-1.507.388-2.954 1.442-4.298l.144-.174 3.326-.236c.399-1.754.972-3.149 1.688-4.144l.103-.144.163-.051c1.136-.339 2.395-.564 3.766-.667 2.661-.184 4.718.093 6.141.841l.583.308c.143-.185.307-.359.471-.523 1.852-1.857 4.544-2.883 8.228-3.149 2.65-.205 5.066.266 7.153 1.415 2.027 1.077 3.49 2.708 4.37 4.852.062 0 .092-.02.102-.03-.061-.021-.092-.195-.347-.698l-.359-.697 3.664-.257.164.133c1.228 1.036 1.893 2.308 1.995 3.796.103 1.497-.388 2.944-1.443 4.288l-.143.174-3.039.226a11.22 11.22 0 0 1-2.016 4.821l-.154.144a12.327 12.327 0 0 1-5.383 1.713c-1.924.143-3.592-.206-4.953-1.036-1.423-.862-2.19-2.011-2.282-3.416-.082-1.365.266-2.544 1.054-3.509a5.185 5.185 0 0 1 1.044-.943c-.205.133-.41.287-.604.451-1.187.995-1.709 2.206-1.607 3.713.051.708.225 1.303.522 1.837l.123.225-.102.236c-.471 1.047-1.402 1.929-2.753 2.626-1.382.677-2.866 1.057-4.575 1.18-.43.031-.849.051-1.269.051h.021zm-9.293-7.888.103.4c.614 2.052 1.668 3.6 3.213 4.739 1.832 1.334 4.247 1.908 7.164 1.682 1.566-.112 2.937-.461 4.185-1.066 1.055-.544 1.771-1.17 2.17-1.919a5.29 5.29 0 0 1-.522-2.02c-.133-1.826.532-3.365 1.965-4.565a6.52 6.52 0 0 1 1.719-1.067c.676-.287 1.239-.441 1.709-.462.44-.041.737.113.891.257.153.133.348.39.368.831l.021.4-.389.113c-1.597.471-2.682 1.087-3.316 1.846-.624.759-.89 1.672-.819 2.79.062 1.057.655 1.908 1.791 2.606 1.167.707 2.63 1.015 4.339.882a11.311 11.311 0 0 0 4.851-1.518 10.186 10.186 0 0 0 1.832-4.688l.051-.411 3.408-.256c.798-1.087 1.167-2.226 1.085-3.406-.072-1.128-.573-2.123-1.474-2.944l-1.729.123c.061.165.092.308.102.421a.924.924 0 0 1-.205.728c-.194.236-.511.359-.931.38-.154.02-.276.031-.42-.01l-.255-.072-.093-.246c-.767-2.072-2.118-3.642-4.021-4.647-1.914-1.057-4.135-1.488-6.591-1.303-3.428.246-5.905 1.18-7.583 2.842-1.361 1.395-1.955 3.046-1.812 5.046.031.554.123.985.266 1.293l.226.482-.492.205a1.756 1.756 0 0 1-.563.113c-.276.031-.695-.051-1.105-.585-.276-.338-.44-.943-.511-1.877-.062-.882.061-1.826.388-2.8a7.099 7.099 0 0 1 .788-1.724c-1.228-.461-2.916-.625-5.035-.471a17.437 17.437 0 0 0-3.377.574c-.645.944-1.146 2.287-1.504 3.99l-.082.38-3.643.256c-.799 1.088-1.167 2.226-1.085 3.406.102 1.169.593 2.134 1.504 2.954l1.709-.133a2.138 2.138 0 0 1-.102-.431c0-.267.051-1.016 1.115-1.108h.287l.409-.031v.021zm-.808 1.108s.072.215.327.677v.031c-.081-.236-.174-.483-.255-.729-.041 0-.062.021-.062.021h-.01zm12.137-10.73-.348.379c-.399.431-.726 1.067-.992 1.898-.277.852-.389 1.662-.338 2.411.041.626.133.964.205 1.149a10.359 10.359 0 0 1-.072-.636c-.133-1.98.389-3.724 1.545-5.201z"/><path fill="#79CC9E" d="M232.175 327.607c15.204 0 27.529-11.362 27.529-25.378s-12.325-25.378-27.529-25.378-27.529 11.362-27.529 25.378 12.325 25.378 27.529 25.378z"/><path fill="#000" d="M232.175 328.13c-15.463 0-28.041-11.622-28.041-25.901s12.578-25.901 28.041-25.901c15.463 0 28.041 11.622 28.041 25.901s-12.578 25.901-28.041 25.901zm0-50.766c-14.901 0-27.017 11.16-27.017 24.875s12.116 24.876 27.017 24.876c14.9 0 27.017-11.161 27.017-24.876 0-13.715-12.117-24.875-27.017-24.875zm-62.017 27.296c-1.494 5.683-7.072 8.237-12.516 7.293a652.725 652.725 0 0 0-14.092-2.267c-16.446-2.472-32.963-4.462-49.389-7.098-1.381-.216-2.773-.431-4.185-.646-11.749-1.765-24.265-3.457-34.857-8.74-14.583-7.273-18.594-22.578-12.331-37.093 2.804-6.514 7.05-12.258 11.052-18.074 5.015-7.273 10.388-14.31 16.016-21.121 6.458-7.817 13.243-15.346 20.12-22.793v30.65a349.859 349.859 0 0 0-10.121 12.228c-5.291 6.729-10.316 13.797-14.89 21.049-1.914 3.036-4.176 6.411-4.79 10.032-.215 1.293-.297 1.693-.02 2.821-.134-.78 1.36 2.021.839 1.559 3.141 3.529 9.21 4.873 14.685 6.052 4.738 1.016 9.518 1.888 14.297 2.709 3.142.523 6.283 1.025 9.415 1.528 15.31 2.452 30.691 4.349 46.022 6.596a671.783 671.783 0 0 1 17.469 2.769c.399.072.788.165 1.156.298 4.749 1.61 7.338 7.611 6.12 12.248z"/><path fill="#fff" d="M241.621 323.083c-.645-1.416-1.228-2.164-1.228-2.164 10.919-11.941.071-18.752.071-18.752 5.516-5.57 4.872-9.971 2.958-12.925-1.771-2.749-5.23-3.734-8.32-2.667-18.851 6.534-44.702-6.37-44.702-6.37s4.053-30.251-9.22-28.507c-4.872.646-12.833 14.156-16.835 26.948 0 0-6.857-9.91-14.409-.4-7.737 9.734-10.48 48.755 3.019 53.259 8.617 2.872 12.997-5.181 12.997-5.181 40.884 28.835 81.512 9.674 75.659-3.231l.01-.01z"/><path fill="#000" d="M210.367 341.958c-13.059 0-28.665-4.042-44.262-14.915-1.156 1.743-5.669 7.488-13.314 4.944-3.602-1.2-6.273-4.698-7.962-10.402-4.196-14.166-.9-36.61 4.708-43.668 2.343-2.954 4.892-4.38 7.552-4.318 3.357.113 5.946 2.636 7.072 3.959 3.96-12.124 11.728-25.696 16.957-26.383 2.405-.318 4.432.339 6.038 1.949 6.038 6.063 4.145 23.87 3.797 26.753 3.05 1.446 26.68 12.186 43.975 6.196 3.397-1.18 7.061-.001 8.914 2.872 1.831 2.831 2.814 7.375-2.61 13.13 1.156.882 3.909 3.354 4.441 7.293.492 3.662-1.064 7.56-4.636 11.571.246.369.635 1.005 1.044 1.908 1.576 3.467.082 7.447-4.103 10.925-5.67 4.718-15.556 8.165-27.611 8.165v.021zm-44.579-16.393.471.329c29.709 20.957 59.448 16.771 71.074 7.108 3.797-3.159 5.188-6.698 3.827-9.714-.604-1.333-1.156-2.051-1.166-2.062l-.266-.338.296-.318c3.551-3.888 5.117-7.601 4.657-11.038-.594-4.431-4.442-6.913-4.483-6.934l-.542-.339.45-.451c4.35-4.39 5.322-8.524 2.896-12.279-1.596-2.472-4.769-3.487-7.716-2.461-18.84 6.524-44.834-6.268-45.09-6.401l-.328-.165.051-.359c.031-.205 2.62-20.156-3.459-26.27-1.381-1.395-3.08-1.939-5.178-1.662-4.421.585-12.25 13.253-16.415 26.589l-.317.995-.594-.862s-2.947-4.175-6.887-4.298c-2.313-.072-4.575 1.241-6.714 3.929-5.342 6.729-8.565 29.091-4.523 42.734 1.566 5.283 4.094 8.637 7.307 9.714 8.115 2.709 12.352-4.862 12.393-4.944l.277-.503h-.021z"/><path fill="#000" d="M221.184 306.106c-11.114 0-18.687-3.252-18.8-3.303l.41-.944c.163.072 17.08 7.335 37.486-.184l.358.964a56.077 56.077 0 0 1-19.454 3.467zm-1.556 18.218c-11.912 0-19.649-2.821-19.772-2.872l.359-.964c.174.061 17.377 6.329 40.034-.072l.277.985a76.844 76.844 0 0 1-20.898 2.913v.01zM163.9 278.565l-.387 14.232 1.023.028.387-14.232-1.023-.028zm1.14 37.039-1.014.136 1.419 10.646 1.014-.136-1.419-10.646zm275.997-12.093c-5.833 1.251-11.932 1.703-18.052 1.61-7.481-.112-14.993-1.015-22.085-2.195-19.997-3.334-35.03-5.898-52.1-11.212a218.441 218.441 0 0 1-7.225-2.369c-5.414-1.867-8.935-2.36-10.685-4.237-.01-.01-.02-.01-.02-.02-.86-.923-1.289-2.195-1.3-4.134-.041-4.739 3.439-13.202 8.157-13.551.266-.02.522-.02.798.021.174.02.348.051.532.092 6.253 1.569 11.708 2.985 16.988 4.329 12.629 3.211 24.234 5.99 43.3 9.386 7.317 1.303 16.026 2.451 23.64 2.862.593.031 1.177.061 1.75.082 5.608.215 11.82.42 15.729-2.226-.604.318 1.464-1.959 1.208-1.313.542-1.016.552-1.426.665-2.719.297-3.662-1.064-7.488-2.17-10.914a247.343 247.343 0 0 0-9.241-24.096c-2.497-5.631-5.168-11.181-7.941-16.669v-43.36c7.767 14.228 15.678 28.384 22.596 43.052 3.766 8.002 7.246 16.146 10.295 24.435 2.446 6.626 5.148 13.243 6.263 20.259 2.487 15.613-5.178 29.44-21.102 32.887z"/><path fill="#fff" d="M264.545 293.51c3.008 1.672 6.293 2.923 9.578 3.959 4.759 1.518 9.6 2.421 14.451 3.58.573.123 1.125.267 1.678.349 7.819 1.488 17.009-.041 22.535-6.421 10.469 23.172 28.194-2.934 31.397-14.977 2.61-9.806 7.87-32.979-15.617-24.137-.102-.318-.225-.626-.317-.913-12.72-34.671-38.837-19.274-38.837-19.274s-37.794-20.701-45.438-11.417c-8.597 10.473 22.985 23.429 31.151 26.557-4.902-1.436-9.497.595-12.485 4.216-.9 1.108-1.535 2.216-1.955 3.283-2.149 5.375.461 11.766 5.609 14.217a4.77 4.77 0 0 0 1.33.493c-2.436-.062-5.281 1.528-7.092 3.026-3.009 2.451-4.39 6.729-2.937 10.514 1.238 3.19 4.104 5.406 6.938 6.955l.011-.01z"/><path fill="#000" d="M323.123 304.752c-4.145 0-7.665-2.975-10.479-8.873-6.059 6.422-15.515 7.335-22.494 6.011-.42-.061-.85-.154-1.3-.256l-.389-.082c-1.371-.328-2.743-.636-4.104-.944-3.418-.769-6.949-1.559-10.387-2.647-3.828-1.2-6.99-2.513-9.671-4-3.684-2.021-6.089-4.452-7.164-7.222-1.473-3.846-.204-8.411 3.091-11.099 1.412-1.169 3.408-2.38 5.403-2.892-5.147-2.739-7.583-9.202-5.403-14.649.471-1.19 1.156-2.339 2.036-3.416 2.457-2.985 5.68-4.667 9.068-4.852-10.142-4.144-26.987-12.135-29.095-20.156-.543-2.062-.082-4.001 1.361-5.765 7.583-9.212 42.255 9.221 45.837 11.16 1.668-.892 11.124-5.549 20.969-2.021 7.942 2.842 14.113 10.145 18.35 21.706.051.154.102.298.143.431 6.928-2.523 11.963-2.421 14.972.308 5.332 4.841 3.029 16.371.829 24.619-2.118 7.939-11.38 23.819-20.826 24.598a8.59 8.59 0 0 1-.727.031l-.02.01zm-10.203-10.73.327.729c2.835 6.278 6.386 9.293 10.521 8.945 3.796-.318 8.177-3.529 12.332-9.048 3.428-4.565 6.406-10.371 7.583-14.792 1.228-4.606 4.953-18.618-.522-23.593-2.763-2.513-7.614-2.482-14.409.072l-.502.185-.164-.513c-.041-.144-.102-.288-.153-.431a14.928 14.928 0 0 1-.174-.493c-4.114-11.222-10.08-18.32-17.715-21.059-10.336-3.713-20.273 2.021-20.375 2.082l-.246.144-.256-.144c-.092-.051-9.548-5.211-19.802-9.16-13.386-5.16-22.034-5.98-25.002-2.38-1.248 1.518-1.627 3.108-1.166 4.852 2.343 8.863 25.165 18.239 32.114 20.895l-.328.975c-4.339-1.272-8.811.236-11.943 4.052-.808.995-1.443 2.051-1.873 3.139-2.036 5.108.359 11.191 5.353 13.571.511.267.941.4 1.218.462l-.123 1.015c-2.293-.061-5.087 1.529-6.755 2.913-2.957 2.411-4.103 6.504-2.783 9.94.982 2.534 3.244 4.791 6.703 6.688 2.62 1.457 5.721 2.739 9.487 3.919 3.397 1.077 6.908 1.867 10.305 2.626 1.372.308 2.743.615 4.114.944l.389.082c.42.092.829.184 1.238.246 6.918 1.323 16.344.369 22.075-6.247l.522-.605.01-.011z"/><path fill="#fff" d="M312.828 294.884s3.049-1.857 8.146-9.991l-8.146 9.991z"/><path fill="#000" d="m313.094 295.325-.532-.882s3.039-1.939 7.982-9.827l.87.543c-5.096 8.145-8.187 10.084-8.31 10.156l-.01.01z"/><path fill="#fff" d="M327.421 270.778s2.763-5.529 1.136-14.925l-1.136 14.925z"/><path fill="#000" d="m327.882 271.014-.911-.462c.031-.051 2.661-5.508 1.085-14.607l1.003-.174c1.637 9.457-1.065 15.007-1.177 15.243zm-52.956-20.946-.418.937 7.409 3.32.417-.936-7.408-3.321zm-7.522 22.291-.324.973 7.835 2.617.324-.973-7.835-2.617zm22.18-37.121-.418.936 13.442 6.03.418-.936-13.442-6.03z"/><path fill="#078450" d="m312.592 442.885-.941 22.126-48.253 18.085-41.355 15.51-68.802 25.799-48.958-46.305-.962-24.372 53.001-18.157 40.352-13.838 56.327-19.285 59.591 40.437z"/><path fill="#000" d="m153.129 524.99-49.348-46.664v-.205l-.982-24.763.358-.123 149.915-51.361 60.042 40.744-.962 22.742-159.023 59.63zm-48.345-47.115 48.58 45.935 157.796-59.168.91-21.49-59.151-40.139-149.076 51.074.931 23.788h.01z"/><path fill="#79CC9E" d="M266.694 432.422c-.461-2.318-1.628-4.38-3.5-6.196-2.559-2.523-5.107-3.816-7.665-3.918-2.17-.062-4.053.718-5.68 2.339-.461.451-.788.882-.972 1.272a1.417 1.417 0 0 1-.338-.257c-.154-.144-.205-.4-.123-.759.072-.349.409-.831 1.013-1.436.604-.616 1.392-1.139 2.323-1.559.952-.431 1.75-.626 2.405-.636-.327-1.518-1.422-3.191-3.285-5.027-.972-.943-1.965-1.723-2.957-2.328-1.31.154-2.845.749-4.595 1.764l-2.528-2.482c-1.648.133-2.999.718-4.043 1.754-1.013 1.046-1.535 2.308-1.535 3.836l1.935 1.867c.184-.472.358-.779.511-.933.256-.236.543-.195.88.113.093.092.164.174.185.195-1.29 2-1.863 4.031-1.74 6.113.164 2.483 1.351 4.801 3.571 6.976 1.198 1.179 2.457 2.01 3.818 2.544 1.351.502 2.548.584 3.592.246.245-.657.645-1.283 1.248-1.888 1.259-1.272 2.753-1.785 4.503-1.549a5.886 5.886 0 0 1 1.842.523c.614.277 1.075.565 1.372.872.327.308.348.647 0 .975-1.535-.934-2.835-1.364-3.992-1.293-1.156.072-2.2.565-3.141 1.498-.942.934-1.28 2.154-1.054 3.662.225 1.508 1.013 2.924 2.333 4.216a11.457 11.457 0 0 0 4.759 2.78 11.776 11.776 0 0 0 5.331-2.01l2.344 2.287c1.648-.133 2.998-.718 4.042-1.754 1.024-1.016 1.535-2.308 1.546-3.796l-1.935-1.907c-.204.492-.378.8-.511.933-.246.267-.543.226-.88-.113a.933.933 0 0 1-.185-.195c1.218-2.164 1.597-4.4 1.095-6.719l.011-.01z"/><path fill="#000" d="m263.337 446.506-2.211-2.164a12.3 12.3 0 0 1-5.209 1.867h-.102l-.102-.021c-1.904-.564-3.521-1.518-4.964-2.903-1.402-1.374-2.231-2.892-2.476-4.503-.256-1.682.143-3.067 1.197-4.113 1.034-1.016 2.2-1.57 3.48-1.652.788-.041 1.627.113 2.548.482-.041-.02-.072-.03-.113-.051a5.456 5.456 0 0 0-1.699-.482c-1.606-.205-2.937.256-4.073 1.405-.532.544-.91 1.098-1.136 1.713l-.081.226-.236.082c-1.146.38-2.466.287-3.93-.256-1.463-.575-2.763-1.447-3.991-2.657-2.302-2.247-3.561-4.709-3.725-7.304a9.835 9.835 0 0 1 .86-4.647l-2.62-2.533v-.216c0-1.651.553-3.026 1.678-4.185 1.126-1.128 2.6-1.764 4.36-1.908l.235-.02 2.415 2.379c1.679-.933 3.173-1.487 4.452-1.631l.174-.02.154.092c1.023.626 2.046 1.436 3.049 2.4 1.924 1.898 3.081 3.673 3.429 5.283l.133.616h-.635c-.614 0-1.351.205-2.2.585-.88.389-1.607.882-2.18 1.456-.522.523-.737.841-.819 1.026.154-.185.328-.369.512-.564 1.709-1.713 3.766-2.534 6.048-2.493 2.682.103 5.383 1.477 8.013 4.062 1.935 1.877 3.163 4.052 3.644 6.463.491 2.297.163 4.564-.973 6.739.062.051.092.062.092.062-.02-.031.123-.205.369-.8l.286-.708 2.631 2.585v.215c-.011 1.652-.584 3.047-1.689 4.155-1.126 1.118-2.589 1.764-4.36 1.897l-.235.021v.02zm-2.098-3.477 2.477 2.411c1.412-.154 2.589-.688 3.489-1.59.87-.862 1.331-1.949 1.382-3.221l-1.269-1.242a2.661 2.661 0 0 1-.287.421c-.255.277-.532.338-.716.338-.266 0-.614-.143-.901-.441-.102-.102-.214-.195-.276-.338l-.112-.236.133-.226c1.156-2.051 1.504-4.195 1.043-6.36-.44-2.205-1.565-4.205-3.356-5.939-2.487-2.441-4.882-3.672-7.328-3.765-2.046-.061-3.766.667-5.291 2.196-.419.42-.716.789-.869 1.128l-.215.462-.461-.216c-.205-.092-.358-.246-.471-.349-.215-.195-.429-.574-.276-1.251.092-.441.45-.985 1.146-1.682.655-.667 1.494-1.221 2.477-1.672.706-.318 1.361-.534 1.955-.616-.441-1.272-1.443-2.677-2.989-4.195a16.932 16.932 0 0 0-2.712-2.165c-1.187.175-2.609.739-4.216 1.672l-.338.195-2.63-2.585c-1.412.154-2.589.687-3.49 1.59-.88.903-1.33 1.98-1.381 3.252l1.259 1.21c.102-.174.194-.318.296-.42.205-.185.819-.636 1.597.092.092.082.153.164.194.215l.307.298-.245.338c-1.239 1.919-1.781 3.827-1.658 5.806.153 2.37 1.279 4.534 3.418 6.637 1.136 1.118 2.323 1.908 3.643 2.431 1.146.431 2.139.524 3.029.298a5.887 5.887 0 0 1 1.269-1.826c1.361-1.375 3.019-1.949 4.933-1.703a6.444 6.444 0 0 1 1.996.564c.685.318 1.187.636 1.514.975.328.297.399.626.399.841 0 .215-.071.533-.409.862l-.287.277-.337-.206c-1.443-.882-2.651-1.282-3.695-1.22-1.033.061-1.954.502-2.814 1.354-.819.81-1.115 1.867-.911 3.221.215 1.395.942 2.708 2.18 3.929a10.974 10.974 0 0 0 4.442 2.626 11.299 11.299 0 0 0 5.004-1.919l.348-.236.01-.02zm-23.221-22.937s-.163.216-.378.759l-.092.236c.153-.318.337-.646.532-.964a2.71 2.71 0 0 1-.062-.031z"/><path fill="#79CC9E" d="M174.579 465.791c-.461-2.318-1.627-4.38-3.5-6.196-2.558-2.523-5.107-3.816-7.665-3.918-2.17-.062-4.053.718-5.68 2.339-.46.451-.788.882-.972 1.272a1.391 1.391 0 0 1-.338-.257c-.153-.143-.205-.4-.123-.769.072-.349.41-.831 1.013-1.436.604-.616 1.392-1.139 2.324-1.559.951-.431 1.75-.626 2.405-.636-.328-1.519-1.423-3.191-3.286-5.027-.972-.944-1.964-1.723-2.957-2.328-1.31.154-2.845.749-4.595 1.764l-2.528-2.482c-1.648.133-2.998.718-4.042 1.754-1.013 1.046-1.535 2.308-1.535 3.836l1.934 1.867c.184-.472.358-.779.512-.933.255-.236.542-.195.88.112.092.093.163.185.184.195-1.29 2.001-1.863 4.032-1.74 6.114.164 2.483 1.351 4.801 3.572 6.975 1.197 1.18 2.456 2.011 3.817 2.544 1.351.503 2.548.585 3.592.247.246-.657.645-1.283 1.249-1.888 1.258-1.272 2.752-1.785 4.502-1.549a5.873 5.873 0 0 1 1.843.523c.614.277 1.074.565 1.371.872.327.308.348.647 0 .975-1.535-.934-2.835-1.364-3.991-1.293-1.157.072-2.201.565-3.142 1.498-.952.933-1.279 2.154-1.054 3.662.225 1.508 1.013 2.924 2.333 4.216a11.47 11.47 0 0 0 4.759 2.78 11.77 11.77 0 0 0 5.332-2.011l2.343 2.288c1.648-.133 2.999-.718 4.043-1.754 1.023-1.016 1.535-2.308 1.545-3.796l-1.934-1.908c-.205.493-.379.801-.512.934-.246.267-.542.226-.88-.113-.092-.092-.154-.144-.184-.195 1.218-2.164 1.596-4.401 1.095-6.719h.01z"/><path fill="#000" d="m171.212 479.876-2.221-2.165a12.3 12.3 0 0 1-5.209 1.867h-.102l-.102-.02a12.014 12.014 0 0 1-4.964-2.903c-1.402-1.375-2.231-2.893-2.476-4.504-.256-1.682.143-3.067 1.197-4.103 1.034-1.015 2.2-1.569 3.479-1.651.778-.041 1.628.112 2.549.482-.041-.021-.072-.031-.113-.052a5.464 5.464 0 0 0-1.699-.482c-1.606-.205-2.937.257-4.083 1.406-.532.543-.911 1.097-1.136 1.713l-.082.225-.235.082c-1.146.38-2.467.288-3.93-.256-1.463-.574-2.763-1.446-4.001-2.657-2.303-2.246-3.562-4.708-3.726-7.303a9.845 9.845 0 0 1 .86-4.647l-2.62-2.534v-.215c0-1.652.553-3.026 1.679-4.186 1.136-1.128 2.599-1.764 4.369-1.908l.236-.02 2.415 2.38c1.668-.934 3.162-1.488 4.452-1.642l.174-.02.153.092c1.024.626 2.047 1.436 3.05 2.401 1.924 1.897 3.08 3.672 3.428 5.282l.133.616h-.634c-.614 0-1.351.205-2.201.585-.88.389-1.606.882-2.179 1.456-.522.523-.727.841-.819 1.026.153-.185.327-.369.512-.564 1.709-1.713 3.776-2.544 6.048-2.493 2.681.103 5.383 1.477 8.013 4.062 1.934 1.878 3.162 4.052 3.643 6.453.491 2.297.164 4.564-.972 6.739.061.051.092.062.092.062-.02-.031.123-.206.368-.801l.287-.707 2.63 2.585v.215c-.01 1.652-.583 3.047-1.688 4.155-1.126 1.118-2.59 1.764-4.36 1.897l-.235.021.02.031zm-2.088-3.478 2.477 2.411c1.412-.154 2.589-.688 3.49-1.59.87-.862 1.33-1.949 1.381-3.221l-1.269-1.241a2.65 2.65 0 0 1-.286.42c-.256.277-.532.339-.717.339h-.01c-.307 0-.604-.154-.89-.441-.113-.103-.215-.195-.277-.339l-.112-.236.133-.226c1.156-2.051 1.504-4.195 1.044-6.359-.44-2.206-1.566-4.206-3.357-5.93-2.487-2.441-4.882-3.672-7.327-3.764-2.057-.072-3.766.667-5.291 2.195-.42.41-.717.8-.87 1.128l-.215.462-.461-.215c-.204-.093-.358-.247-.47-.349-.215-.195-.43-.575-.277-1.252.092-.441.451-.984 1.147-1.682.654-.667 1.494-1.221 2.476-1.662.706-.318 1.361-.533 1.955-.626-.44-1.272-1.443-2.677-2.978-4.195-.891-.862-1.801-1.59-2.712-2.164-1.198.174-2.61.738-4.217 1.672l-.337.195-2.63-2.585c-1.413.153-2.59.687-3.49 1.579-.88.903-1.331 1.98-1.382 3.252l1.259 1.21c.102-.174.195-.318.297-.42.194-.185.819-.636 1.596.092.092.082.164.164.205.216l.297.297-.236.339c-1.238 1.918-1.78 3.826-1.657 5.806.153 2.338 1.299 4.564 3.418 6.636 1.136 1.119 2.323 1.908 3.643 2.432 1.146.43 2.149.523 3.029.297a5.91 5.91 0 0 1 1.269-1.826c1.361-1.374 3.029-1.949 4.933-1.703.747.093 1.402.277 1.995.565.686.318 1.188.635 1.515.974.327.297.399.626.399.841 0 .216-.072.534-.409.862l-.287.277-.337-.205c-1.454-.883-2.651-1.283-3.695-1.221-1.034.061-1.955.503-2.814 1.354-.819.81-1.116 1.867-.911 3.221.215 1.385.941 2.708 2.18 3.929a10.96 10.96 0 0 0 4.441 2.626 11.313 11.313 0 0 0 5.005-1.918l.348-.236-.011-.021zm-23.22-22.947s-.164.216-.379.759l-.092.236c.164-.328.338-.646.532-.974a7.956 7.956 0 0 0-.061-.031v.01z"/><path fill="#79CC9E" d="M214.716 472.12c14.265-4.426 22.66-18.276 18.751-30.934-3.91-12.659-18.642-19.333-32.907-14.907-14.265 4.426-22.66 18.276-18.75 30.935 3.909 12.658 18.642 19.332 32.906 14.906z"/><path fill="#000" d="M205.751 474.028c-4.032 0-7.992-.831-11.605-2.472-6.355-2.872-10.909-7.909-12.843-14.176-1.935-6.268-1.003-13.007 2.609-18.977 3.603-5.95 9.456-10.422 16.477-12.607 7.02-2.175 14.368-1.796 20.703 1.066 6.355 2.873 10.919 7.909 12.853 14.177 1.935 6.267 1.003 13.007-2.609 18.977-3.603 5.95-9.456 10.422-16.477 12.607a30.682 30.682 0 0 1-9.098 1.395l-.01.01zm3.736-48.591c-2.917 0-5.885.451-8.791 1.354-6.775 2.102-12.434 6.421-15.904 12.155-3.469 5.714-4.359 12.156-2.507 18.136 1.842 5.981 6.212 10.792 12.291 13.551 6.099 2.77 13.191 3.129 19.976 1.026 6.775-2.103 12.434-6.422 15.904-12.156 3.469-5.714 4.359-12.156 2.507-18.136-1.842-5.98-6.212-10.791-12.291-13.551-3.49-1.579-7.297-2.379-11.185-2.379zm102.786 21.45-158.541 57.808.35.964 158.541-57.808-.35-.964zm-.142 3.936-158.905 59.868.361.961 158.904-59.869-.36-.96zm-.198 4.479-159.076 61.719.369.957 159.076-61.719-.369-.957zm-.178 4.411-158.929 60.991.366.958 158.929-60.991-.366-.958z"/><path fill="#000" d="m103.81 458.576-.693.754 49.949 46.12.694-.755-49.95-46.119zm.386 7.493-.679.768 49.752 44.151.678-.768-49.751-44.151zm48.472 51.627-48.569-43.555.685-.769 48.57 43.565-.686.759z"/><path fill="#fff" d="m253.533 486.512-32.492 12.494-1.924-22.783-.277-.164-54.26-43.268 31.081-10.647 58.261 41.626-.389 22.742z"/><path fill="#000" d="m220.58 499.735-1.955-23.204-.061-.031-55.038-43.883 32.217-11.037.214.153 58.477 41.781-.4 23.357-33.454 12.864zm-54.945-66.759 53.523 42.683.45.277 1.883 22.363 31.541-12.125.378-22.127-57.821-41.319-29.944 10.258-.01-.01zm-12.776 66.096-.147 25.439 1.024.006.146-25.44-1.023-.005z"/><path fill="#000" d="m153.067 499.786-.225-.205-49.869-45.484.685-.759 49.645 45.279 159.126-56.203.348.964-159.71 56.408z"/><path fill="#078450" d="m409.087 505.243-10.981 19.203-51.148-6.176-43.832-5.303-72.936-8.811-22.239-63.682 10.337-22.085 55.395 8.309 42.174 6.319 58.865 8.832 34.365 63.394z"/><path fill="#000" d="m398.383 525-.338-.041-168.234-20.321-.102-.298-22.3-63.886.092-.184 10.5-22.435.379.062 156.69 23.501.123.226 34.498 63.64-11.288 19.746-.02-.01zm-167.815-21.306 167.262 20.208 10.674-18.659-34.109-62.912-155.811-23.367-10.08 21.552 22.064 63.188v-.01z"/><path fill="#79CC9E" d="M373.136 474.787c.655-2.267.563-4.636-.266-7.119-1.116-3.416-2.784-5.734-5.015-7.006-1.893-1.046-3.919-1.231-6.109-.533-.614.194-1.106.42-1.443.687a1.51 1.51 0 0 1-.185-.39c-.071-.205 0-.451.236-.738.225-.277.737-.544 1.555-.811.819-.267 1.76-.369 2.784-.308 1.044.052 1.842.247 2.425.554.399-1.497.195-3.487-.614-5.97a17.21 17.21 0 0 0-1.555-3.436c-1.239-.462-2.876-.646-4.892-.554l-1.105-3.365c-1.525-.646-2.999-.738-4.391-.307-1.381.461-2.415 1.343-3.121 2.697l.86 2.555c.378-.339.675-.524.88-.595.327-.093.573.082.726.502.041.123.062.236.072.257-2.067 1.19-3.5 2.718-4.349 4.626-.993 2.277-1.003 4.883-.021 7.837.522 1.6 1.259 2.913 2.221 4.021.972 1.067 1.985 1.693 3.08 1.877.522-.471 1.157-.841 1.975-1.097 1.699-.544 3.265-.308 4.708.697.542.37 1.013.8 1.402 1.313.42.534.696.995.819 1.406.153.431 0 .728-.451.861-.931-1.538-1.893-2.523-2.947-2.995s-2.21-.513-3.479-.113c-1.269.4-2.129 1.323-2.62 2.77-.491 1.446-.44 3.067.133 4.811a11.654 11.654 0 0 0 2.947 4.657c1.812.687 3.715.913 5.659.667l1.034 3.108c1.525.646 2.999.738 4.39.308 1.372-.431 2.416-1.344 3.111-2.668l-.849-2.585c-.399.339-.696.534-.88.595-.348.124-.583-.041-.727-.502-.041-.123-.071-.205-.071-.257 2.067-1.354 3.428-3.169 4.052-5.457h.021z"/><path fill="#000" d="M366.75 486.44c-.931 0-1.883-.205-2.855-.615l-.215-.093-.983-2.933a12.352 12.352 0 0 1-5.485-.749l-.174-.113a12.089 12.089 0 0 1-3.08-4.862c-.614-1.867-.655-3.601-.133-5.15.542-1.61 1.535-2.657 2.947-3.098 1.381-.431 2.671-.379 3.838.144.716.318 1.391.851 2.036 1.6-.02-.031-.051-.061-.072-.092a5.177 5.177 0 0 0-1.289-1.2c-1.33-.924-2.722-1.129-4.268-.636-.726.236-1.309.554-1.79.995l-.185.164-.245-.041c-1.187-.195-2.323-.882-3.377-2.031-1.034-1.18-1.791-2.555-2.334-4.206-1.013-3.057-1.003-5.816.041-8.206.645-1.457 1.597-2.688 2.896-3.734l-1.166-3.457.102-.195c.768-1.467 1.883-2.431 3.418-2.944 1.525-.482 3.111-.38 4.749.318l.215.092 1.054 3.221c1.913-.061 3.489.144 4.697.595l.164.062.092.154c.624 1.025 1.166 2.215 1.607 3.539.839 2.564 1.054 4.677.624 6.267l-.164.616-.563-.288c-.552-.277-1.3-.451-2.221-.492-.962-.051-1.831.041-2.599.287-.706.226-1.034.411-1.197.534.215-.093.46-.185.716-.267 2.303-.728 4.493-.533 6.509.574 2.333 1.334 4.104 3.786 5.25 7.294.859 2.554.951 5.057.276 7.416-.624 2.267-1.955 4.124-3.95 5.539a.353.353 0 0 0 .051.093c0-.041.215-.134.696-.534l.583-.492 1.146 3.508-.102.195c-.767 1.457-1.914 2.442-3.408 2.913a6.237 6.237 0 0 1-1.893.298l.041.01zm-2.241-1.467c1.33.513 2.62.585 3.827.205 1.167-.369 2.078-1.118 2.712-2.226l-.553-1.692a1.913 1.913 0 0 1-.45.236c-.358.123-.624.051-.788-.031-.276-.133-.471-.41-.593-.81a1.234 1.234 0 0 1-.093-.431v-.267l.236-.143c1.965-1.293 3.254-3.027 3.848-5.17.624-2.165.532-4.452-.256-6.822-1.085-3.313-2.651-5.509-4.779-6.729-1.781-.985-3.654-1.149-5.711-.493-.563.175-1.003.38-1.289.606l-.41.318-.317-.411a1.853 1.853 0 0 1-.256-.513c-.102-.287-.122-.718.328-1.251.286-.349.849-.667 1.791-.964.89-.288 1.883-.4 2.968-.339.767.041 1.453.154 2.016.349.194-1.334-.052-3.036-.727-5.098-.399-1.17-.87-2.247-1.412-3.17-1.136-.39-2.661-.544-4.524-.462l-.388.021-1.147-3.508c-1.33-.513-2.62-.585-3.827-.205-1.197.4-2.088 1.138-2.722 2.256l.552 1.662c.164-.113.318-.184.461-.236.256-.072 1.023-.195 1.381.821.041.123.062.226.082.287l.123.39-.358.195c-1.975 1.138-3.336 2.575-4.135 4.39-.951 2.175-.951 4.616 0 7.468.492 1.518 1.188 2.77 2.119 3.836.829.913 1.668 1.457 2.548 1.662.553-.451 1.197-.79 1.965-1.036 1.842-.595 3.582-.338 5.158.769a6.336 6.336 0 0 1 1.514 1.426c.471.595.768 1.108.901 1.57.154.42.061.738-.031.923-.092.195-.307.451-.757.574l-.379.113-.204-.338c-.88-1.457-1.771-2.37-2.723-2.79-.951-.431-1.964-.462-3.121-.093-1.095.339-1.842 1.139-2.282 2.442-.45 1.333-.409 2.841.133 4.493.583 1.692 1.474 3.128 2.743 4.38 1.709.626 3.489.831 5.321.605l.42-.051 1.095 3.282h-.01zm-11.176-34.364s-.245.123-.685.503l-.185.164c.287-.215.594-.421.911-.616-.02-.041-.041-.051-.041-.051z"/><path fill="#79CC9E" d="M276.027 461.955c.655-2.267.563-4.637-.266-7.119-1.116-3.416-2.784-5.735-5.015-7.006-1.893-1.047-3.919-1.231-6.109-.534-.614.195-1.106.421-1.443.687a1.489 1.489 0 0 1-.185-.389c-.071-.206.001-.452.236-.739.225-.277.737-.544 1.555-.81.819-.267 1.761-.37 2.784-.308 1.044.051 1.842.246 2.425.554.4-1.498.195-3.488-.614-5.97a17.107 17.107 0 0 0-1.555-3.437c-1.238-.461-2.876-.646-4.892-.554l-1.105-3.364c-1.525-.646-2.999-.739-4.39-.308-1.382.462-2.416 1.344-3.122 2.698l.86 2.554c.379-.338.675-.523.88-.595.327-.092.573.082.727.503.04.123.061.236.071.256-2.067 1.19-3.5 2.719-4.349 4.627-.993 2.277-1.003 4.882-.021 7.837.522 1.6 1.259 2.913 2.221 4.021.972 1.067 1.985 1.692 3.08 1.877.522-.472 1.157-.841 1.976-1.098 1.698-.543 3.264-.307 4.707.698.543.369 1.013.8 1.402 1.313.42.533.696.995.819 1.405.153.431 0 .728-.45.862-.932-1.539-1.894-2.524-2.948-2.995-1.054-.472-2.21-.513-3.479-.113-1.269.4-2.129 1.323-2.62 2.769-.491 1.447-.44 3.067.133 4.811a11.64 11.64 0 0 0 2.947 4.657c1.812.688 3.715.913 5.66.667l1.033 3.108c1.525.647 2.999.739 4.391.308 1.371-.431 2.415-1.344 3.111-2.667l-.85-2.585c-.399.338-.696.533-.88.595-.348.123-.583-.041-.726-.503-.041-.123-.072-.205-.072-.256 2.067-1.354 3.428-3.17 4.052-5.457h.021z"/><path fill="#000" d="M269.641 473.607c-.931 0-1.883-.205-2.855-.615l-.215-.092-.983-2.934a12.2 12.2 0 0 1-5.485-.749l-.174-.113a12.1 12.1 0 0 1-3.08-4.862c-.614-1.867-.655-3.601-.133-5.15.542-1.61 1.535-2.656 2.947-3.097 1.382-.431 2.671-.38 3.838.143.716.318 1.392.852 2.036 1.6-.02-.03-.051-.061-.071-.092a5.218 5.218 0 0 0-1.29-1.2c-1.33-.923-2.722-1.128-4.267-.636-.727.236-1.31.554-1.791.995l-.184.164-.246-.041c-1.187-.195-2.323-.882-3.377-2.031-1.034-1.18-1.791-2.554-2.334-4.206-1.013-3.057-1.002-5.816.041-8.206.645-1.457 1.597-2.688 2.897-3.734l-1.167-3.457.102-.195c.768-1.467 1.883-2.431 3.418-2.944 1.525-.482 3.111-.369 4.749.318l.215.093 1.054 3.221c1.903-.052 3.49.143 4.697.594l.164.062.092.154c.624 1.026 1.167 2.216 1.607 3.539.839 2.575 1.054 4.677.624 6.267l-.164.616-.563-.287c-.542-.277-1.289-.452-2.22-.493-.973-.051-1.832.041-2.6.288-.706.225-1.033.41-1.197.533a8.21 8.21 0 0 1 .716-.267c2.303-.728 4.493-.533 6.509.575 2.333 1.333 4.104 3.785 5.25 7.293.86 2.554.952 5.057.276 7.417-.624 2.267-1.954 4.123-3.95 5.539a.33.33 0 0 0 .051.092c0-.041.205-.123.696-.533l.583-.493 1.147 3.509-.103.194c-.767 1.457-1.914 2.442-3.408 2.914a6.236 6.236 0 0 1-1.893.297l.041.01zm-2.241-1.477c1.33.513 2.62.585 3.827.205 1.167-.369 2.078-1.118 2.712-2.225l-.552-1.693a1.917 1.917 0 0 1-.451.236.992.992 0 0 1-.788-.031c-.276-.133-.47-.41-.593-.81a1.256 1.256 0 0 1-.092-.431v-.267l.235-.143c1.965-1.293 3.265-3.027 3.848-5.17.624-2.165.532-4.452-.256-6.822-1.085-3.313-2.65-5.508-4.779-6.729-1.781-.985-3.654-1.149-5.711-.492-.562.174-.992.379-1.289.605l-.409.318-.307-.411a1.835 1.835 0 0 1-.256-.512c-.103-.288-.123-.719.327-1.252.287-.349.85-.667 1.791-.964.89-.287 1.893-.4 2.968-.339.767.041 1.453.154 2.016.349.194-1.333-.051-3.036-.727-5.098-.399-1.17-.869-2.247-1.412-3.17-1.136-.39-2.661-.543-4.523-.461l-.389.02-1.146-3.508c-1.331-.513-2.62-.585-3.828-.205-1.197.4-2.087 1.138-2.722 2.256l.553 1.662c.163-.113.317-.184.46-.236.256-.072 1.024-.195 1.382.821.041.123.061.226.082.287l.122.4-.358.195c-1.975 1.139-3.326 2.575-4.134 4.391-.952 2.174-.952 4.616 0 7.467.491 1.518 1.187 2.77 2.118 3.837.829.913 1.668 1.456 2.548 1.662.553-.452 1.198-.79 1.965-1.037 1.842-.594 3.582-.338 5.158.77.614.42 1.116.892 1.515 1.426.471.595.767 1.108.9 1.569.154.421.062.739-.03.923-.092.195-.307.452-.758.575l-.378.113-.205-.339c-.88-1.457-1.77-2.369-2.722-2.79-.952-.431-1.965-.462-3.121-.092-1.096.338-1.843 1.138-2.283 2.441-.45 1.334-.409 2.841.133 4.493.584 1.693 1.474 3.129 2.743 4.38 1.709.626 3.5.831 5.322.605l.419-.051 1.095 3.283-.02-.011zm-11.176-34.353s-.245.123-.685.502l-.184.164c.286-.215.593-.41.91-.605-.02-.041-.041-.051-.041-.051v-.01z"/><path fill="#79CC9E" d="M339.595 467.296c2.339-13.042-7.68-25.761-22.377-28.409-14.697-2.648-28.507 5.778-30.846 18.82-2.339 13.042 7.68 25.761 22.377 28.409 14.697 2.648 28.507-5.778 30.846-18.82z"/><path fill="#000" d="M314.168 487.087c-1.831 0-3.674-.164-5.526-.493-14.951-2.698-25.175-15.705-22.791-29.009 2.385-13.305 16.487-21.931 31.439-19.244 14.951 2.698 25.175 15.705 22.79 29.009-1.156 6.453-5.075 12.013-11.021 15.644-4.421 2.698-9.569 4.093-14.891 4.093zm-2.353-48.212c-12.291 0-22.955 7.724-24.961 18.884-2.282 12.741 7.573 25.225 21.972 27.82 6.99 1.262 13.98.031 19.7-3.467 5.701-3.478 9.446-8.791 10.552-14.956 2.282-12.741-7.573-25.225-21.972-27.82a30.105 30.105 0 0 0-5.291-.472v.011zm-72.13 47.903-.132 1.017 167.288 21.868.133-1.017-167.289-21.868zm-3.248 5.207-.121 1.019 168.579 20.029.12-1.018-168.578-20.03zm-3.24 5.444-.111 1.02 169.57 18.554.112-1.019-169.571-18.555zm-1.714 3.304-.114 1.019 169.121 18.985.114-1.019-169.121-18.985z"/><path fill="#000" d="m216.505 422.908-.962.35 23.194 63.979.962-.351-23.194-63.978zm-3.104 6.83-.955.369 23.921 62.139.955-.369-23.921-62.139zm-2.815 6.753-.956.364 23.145 61.075.957-.365-23.146-61.074z"/><path fill="#fff" d="m336.632 516.752-34.591-3.888 8.74-21.111-.164-.287-28.327-63.424 32.482 4.872 32.636 63.814-10.776 20.024z"/><path fill="#000" d="m336.908 517.296-35.603-4.001 8.903-21.511-.031-.061-28.736-64.338 33.669 5.057.123.236 32.758 64.061-.123.236-10.94 20.321h-.02zm-34.14-4.862 33.567 3.764 10.49-19.48-32.39-63.342-31.296-4.698 27.949 62.573.276.441-8.586 20.721-.01.021zm-61.3-30.957-11.801 22.522.906.477 11.801-22.522-.906-.477z"/><path fill="#000" d="m409.016 505.756-167.692-23.532-.102-.287-23.415-63.384.962-.359 23.302 63.097 167.088 23.449-.143 1.016z"/><path fill="#078450" d="m372.327 407.577-4.349 21.706-50.473 10.371-43.249 8.883-71.964 14.792-41.211-53.351 2.824-24.23 55.171-9.693 41.999-7.396 58.63-10.299 52.622 49.217z"/><path fill="#000" d="m202.077 463.904-.194-.257-41.335-53.515 2.897-24.824 156.424-27.502.184.175 52.827 49.412-4.472 22.321-.328.072-166.003 34.118zm-40.464-54.07 40.884 52.931 165.041-33.913 4.226-21.09-52.223-48.848L164.366 386.2l-2.753 23.645v-.011z"/><path fill="#79CC9E" d="M328.608 390.108c-.092-2.359-.931-4.585-2.497-6.667-2.139-2.883-4.451-4.555-6.969-5.058-2.129-.389-4.114.072-5.966 1.426-.522.38-.911.749-1.157 1.108a1.655 1.655 0 0 1-.296-.308c-.133-.164-.144-.43 0-.769.122-.328.532-.749 1.217-1.262.696-.513 1.556-.913 2.538-1.179 1.003-.277 1.822-.349 2.477-.246-.092-1.549-.911-3.375-2.466-5.468-.819-1.087-1.669-2-2.559-2.759-1.32-.052-2.927.297-4.81 1.025l-2.108-2.841c-1.648-.123-3.08.246-4.257 1.108-1.167.882-1.873 2.041-2.108 3.549l1.617 2.144c.255-.441.481-.718.644-.841.287-.195.573-.113.85.246.082.103.133.205.143.226-1.586 1.785-2.466 3.693-2.661 5.775-.225 2.472.594 4.944 2.456 7.447.993 1.354 2.119 2.37 3.377 3.108 1.259.708 2.426.975 3.511.8.348-.605.839-1.159 1.525-1.672 1.432-1.056 2.998-1.333 4.687-.831a6.125 6.125 0 0 1 1.739.801c.563.369.973.728 1.218 1.077.276.359.236.687-.153.964-1.372-1.159-2.589-1.785-3.746-1.898-1.146-.113-2.262.216-3.336.995-1.085.78-1.597 1.929-1.607 3.457 0 1.529.553 3.047 1.648 4.524a11.575 11.575 0 0 0 4.267 3.488 11.817 11.817 0 0 0 5.578-1.16l1.965 2.626c1.647.124 3.08-.246 4.257-1.107 1.167-.842 1.873-2.042 2.108-3.519l-1.617-2.185c-.276.452-.491.729-.645.841-.286.226-.573.144-.849-.246-.082-.102-.133-.164-.143-.226 1.535-1.949 2.251-4.103 2.128-6.462v-.031z"/><path fill="#000" d="M323.993 403.536c-.215 0-.43 0-.655-.031l-.235-.02-1.853-2.483a12.255 12.255 0 0 1-5.434 1.036l-.205-.051c-1.791-.862-3.244-2.052-4.462-3.631-1.176-1.58-1.76-3.211-1.75-4.842 0-1.703.625-3.006 1.822-3.877 1.177-.852 2.405-1.211 3.684-1.088.778.072 1.587.359 2.446.872-.031-.02-.061-.041-.102-.061a5.443 5.443 0 0 0-1.597-.739c-1.555-.462-2.937-.205-4.247.759-.614.451-1.064.944-1.392 1.508l-.122.215-.246.041c-1.187.195-2.487-.092-3.848-.861-1.351-.8-2.507-1.857-3.541-3.242-1.924-2.574-2.783-5.2-2.558-7.796.153-1.59.665-3.057 1.566-4.462l-2.19-2.903.03-.215c.256-1.631 1.013-2.903 2.313-3.878 1.29-.944 2.835-1.344 4.605-1.21l.236.02 2.016 2.719c1.791-.667 3.367-.975 4.646-.924h.174l.133.124c.911.779 1.801 1.733 2.64 2.841 1.638 2.205 2.477 4.083 2.569 5.755l.041.636-.624-.093c-.604-.092-1.361-.01-2.262.236-.931.257-1.73.626-2.374 1.098-.594.431-.85.718-.973.882.174-.164.379-.318.594-.472 1.955-1.426 4.094-1.928 6.355-1.518 2.641.523 5.086 2.287 7.287 5.252 1.627 2.154 2.497 4.493 2.599 6.945.123 2.349-.542 4.534-2.006 6.503.051.062.082.072.082.072 0-.041.164-.185.491-.728l.399-.647 2.201 2.965-.031.215c-.266 1.631-1.044 2.924-2.313 3.847-1.125.81-2.446 1.231-3.94 1.231h.031zm-.348-1.036c1.422.062 2.661-.277 3.694-1.026.983-.718 1.617-1.713 1.863-2.975l-1.054-1.425a2.075 2.075 0 0 1-.348.369.99.99 0 0 1-.757.226c-.307-.042-.584-.236-.819-.575a1.167 1.167 0 0 1-.225-.38l-.072-.256.164-.205c1.453-1.847 2.139-3.908 2.016-6.124-.092-2.247-.901-4.39-2.395-6.38-2.077-2.801-4.257-4.391-6.662-4.863-2.006-.369-3.827.072-5.567 1.344-.481.349-.829.677-1.034.975l-.286.43-.43-.287a1.857 1.857 0 0 1-.399-.41c-.185-.236-.338-.646-.082-1.293.153-.42.604-.902 1.392-1.487.747-.554 1.657-.975 2.712-1.262.747-.205 1.432-.359 2.026-.308-.236-1.323-1.003-2.872-2.303-4.616-.747-.984-1.535-1.846-2.343-2.554-1.198 0-2.702.328-4.432.995l-.358.144-2.2-2.965c-1.412-.061-2.661.277-3.694 1.026-1.003.759-1.617 1.744-1.873 3.006l1.054 1.395a2.5 2.5 0 0 1 .358-.37c.225-.153.911-.512 1.566.339.071.092.123.174.153.236l.277.338-.307.308c-1.515 1.703-2.344 3.498-2.538 5.478-.215 2.359.552 4.677 2.353 7.088.942 1.282 1.996 2.247 3.224 2.965 1.075.605 2.037.851 2.947.769.379-.605.891-1.128 1.536-1.611 1.555-1.148 3.285-1.456 5.137-.912.716.205 1.33.492 1.883.871.624.411 1.074.811 1.351 1.201.276.348.297.677.266.892-.031.215-.154.523-.543.79l-.317.226-.297-.257c-1.299-1.097-2.425-1.682-3.469-1.785-1.023-.102-2.006.195-2.988.903-.931.677-1.392 1.672-1.392 3.047 0 1.405.512 2.82 1.545 4.216a11.022 11.022 0 0 0 3.981 3.282 11.304 11.304 0 0 0 5.24-1.118l.379-.185 2.077 2.77h-.01zm-21.46-29.04s-.195.195-.492.697l-.122.216c.204-.298.429-.585.675-.872a.61.61 0 0 1-.051-.041h-.01z"/><path fill="#79CC9E" d="M232.441 408.747c-.092-2.359-.931-4.585-2.497-6.667-2.139-2.883-4.452-4.555-6.969-5.057-2.129-.39-4.114.071-5.967 1.425-.522.38-.91.749-1.156 1.108a1.687 1.687 0 0 1-.297-.307c-.133-.165-.143-.431 0-.77.123-.328.532-.749 1.218-1.261.696-.513 1.556-.913 2.538-1.18 1.003-.277 1.822-.349 2.477-.246-.092-1.549-.911-3.375-2.467-5.468-.818-1.087-1.668-2-2.558-2.759-1.32-.051-2.927.297-4.81 1.026l-2.108-2.842c-1.648-.123-3.081.246-4.258 1.108-1.166.882-1.872 2.041-2.108 3.549l1.617 2.144c.256-.441.481-.718.645-.841.287-.195.573-.113.849.246.082.103.133.205.144.226-1.587 1.785-2.467 3.693-2.661 5.775-.225 2.472.593 4.944 2.456 7.447.993 1.354 2.118 2.37 3.377 3.108 1.259.708 2.426.975 3.51.801.348-.606.84-1.16 1.525-1.672 1.433-1.057 2.999-1.334 4.687-.831a6.089 6.089 0 0 1 1.74.8c.563.369.972.728 1.218 1.077.276.359.235.687-.154.964-1.371-1.159-2.589-1.785-3.745-1.898-1.157-.112-2.262.216-3.336.995-1.085.78-1.597 1.929-1.607 3.457 0 1.529.552 3.047 1.647 4.524a11.56 11.56 0 0 0 4.268 3.488 11.812 11.812 0 0 0 5.577-1.159l1.965 2.626c1.648.123 3.081-.247 4.258-1.108 1.166-.841 1.872-2.042 2.108-3.519l-1.617-2.185c-.277.452-.491.729-.645.842-.286.225-.573.143-.849-.247-.082-.102-.133-.164-.144-.225 1.535-1.949 2.252-4.103 2.129-6.463v-.031z"/><path fill="#000" d="M227.826 422.175c-.215 0-.43 0-.655-.031l-.236-.02-1.852-2.473a12.23 12.23 0 0 1-5.434 1.036l-.205-.051a12.068 12.068 0 0 1-4.452-3.631c-1.177-1.58-1.76-3.211-1.75-4.842 0-1.703.625-3.005 1.822-3.867 1.177-.841 2.415-1.2 3.684-1.087.788.082 1.597.369 2.446.871-.031-.02-.072-.051-.102-.071a5.739 5.739 0 0 0-1.597-.739c-1.555-.451-2.937-.205-4.247.759-.614.451-1.064.944-1.392 1.508l-.122.215-.246.042c-1.187.194-2.487-.093-3.848-.862-1.351-.8-2.507-1.857-3.541-3.252-1.924-2.575-2.783-5.201-2.558-7.796.153-1.59.665-3.057 1.565-4.462l-2.19-2.903.031-.216c.256-1.631 1.013-2.903 2.313-3.877 1.289-.933 2.835-1.334 4.605-1.21l.236.02 2.016 2.718c1.801-.666 3.367-.974 4.646-.923h.174l.133.123a18.2 18.2 0 0 1 2.64 2.842c1.638 2.205 2.477 4.082 2.569 5.754l.041.636-.624-.092c-.604-.092-1.362-.01-2.262.236-.931.256-1.73.626-2.374 1.098-.594.441-.85.718-.973.882a7.52 7.52 0 0 1 .594-.472c1.955-1.426 4.093-1.929 6.355-1.518 2.64.523 5.086 2.287 7.287 5.252 1.627 2.154 2.497 4.493 2.599 6.944.133 2.35-.542 4.534-2.006 6.504.051.061.082.072.082.072 0-.041.164-.195.491-.729l.399-.646 2.201 2.965-.031.215c-.266 1.631-1.044 2.924-2.313 3.847-1.126.81-2.446 1.231-3.94 1.231h.021zm-.348-1.036c1.422.061 2.66-.277 3.694-1.026.993-.718 1.617-1.713 1.863-2.975l-1.054-1.426a3.226 3.226 0 0 1-.348.37.998.998 0 0 1-.768.225c-.307-.041-.583-.236-.819-.574-.092-.123-.174-.226-.225-.38l-.071-.256.163-.205c1.453-1.847 2.139-3.909 2.016-6.124-.092-2.247-.9-4.391-2.394-6.381-2.078-2.8-4.258-4.39-6.663-4.862-2.005-.369-3.827.072-5.567 1.344-.481.349-.829.677-1.033.974l-.287.421-.42-.287a1.741 1.741 0 0 1-.409-.421c-.174-.226-.338-.636-.082-1.282.154-.421.604-.903 1.392-1.488.757-.553 1.668-.974 2.712-1.261.737-.205 1.412-.308 2.006-.308h.02c-.235-1.323-1.003-2.872-2.302-4.616-.747-.995-1.535-1.857-2.344-2.554-1.207-.011-2.691.328-4.431.995l-.369.143-2.2-2.964c-1.422-.062-2.661.277-3.694 1.026-1.003.759-1.617 1.743-1.873 3.005l1.054 1.395a2.49 2.49 0 0 1 .358-.369c.225-.154.911-.503 1.566.338.072.093.123.175.154.236l.276.339-.307.308c-1.515 1.713-2.344 3.498-2.538 5.477-.215 2.36.552 4.678 2.354 7.089.941 1.282 1.995 2.246 3.223 2.964 1.075.605 2.027.862 2.948.769.378-.605.89-1.128 1.535-1.61 1.555-1.149 3.285-1.457 5.137-.913.716.205 1.33.492 1.883.872.635.421 1.075.81 1.351 1.2.276.349.297.677.266.893-.031.215-.153.523-.542.789l-.328.226-.297-.256c-1.299-1.098-2.425-1.683-3.459-1.785-1.033-.103-2.005.195-2.988.902-.931.678-1.392 1.673-1.392 3.047 0 1.405.512 2.821 1.546 4.216a10.916 10.916 0 0 0 3.981 3.283 11.315 11.315 0 0 0 5.239-1.118l.379-.185 2.077 2.77.011.01zm-21.461-29.03s-.194.195-.491.697l-.123.216c.205-.298.43-.585.676-.872-.041-.031-.051-.041-.051-.041h-.011z"/><path fill="#79CC9E" d="M271.048 421.283c14.777-2.153 25.215-14.529 23.314-27.642-1.902-13.114-15.423-21.999-30.2-19.846-14.777 2.153-25.215 14.529-23.313 27.642 1.901 13.113 15.422 21.999 30.199 19.846z"/><path fill="#000" d="M266.642 422.093c-5.69 0-11.165-1.58-15.77-4.606-5.833-3.826-9.558-9.519-10.5-16.002-1.944-13.377 8.709-26.035 23.743-28.23 7.276-1.057 14.481.461 20.283 4.277 5.833 3.827 9.559 9.51 10.5 16.003.942 6.493-1.013 13.007-5.516 18.341-4.482 5.313-10.96 8.832-18.226 9.889a32.097 32.097 0 0 1-4.514.328zm1.996-48.141c-1.443 0-2.906.103-4.37.318-14.481 2.114-24.745 14.249-22.883 27.071.901 6.196 4.473 11.632 10.05 15.295 5.598 3.682 12.547 5.139 19.577 4.113 7.021-1.026 13.274-4.411 17.592-9.54 4.309-5.108 6.182-11.335 5.291-17.531-.9-6.195-4.472-11.632-10.049-15.294-4.432-2.913-9.712-4.442-15.208-4.442v.01zm102.761 37.601-165.594 32.324.195 1.007 165.594-32.324-.195-1.007zm-.795 3.725-166.213 34.593.208 1.004 166.213-34.593-.208-1.004zm-.894 4.568-166.731 36.103.216 1.002 166.731-36.103-.216-1.002zm-.822 4.166-166.422 35.64.213 1.003 166.423-35.64-.214-1.003zm-205.274-33.337-.802.637 42.202 53.332.802-.637-42.202-53.332z"/><path fill="#000" d="m162.86 398.064-.789.653 42.32 51.35.789-.654-42.32-51.349zm-.542 7.316-.793.649 41.249 50.586.792-.649-41.248-50.586z"/><path fill="#fff" d="m307.23 441.49-34.038 7.294 1.627-22.804-.245-.205-46.912-51.187 32.359-5.683 51.108 50.182-3.899 22.403z"/><path fill="#000" d="m272.64 449.43 1.657-23.224-.051-.041-47.587-51.915 33.536-5.898 51.497 50.551-.051.266-3.961 22.752-.338.072-34.702 7.437zm-43.965-74.493 46.277 50.49.399.338-1.596 22.383 33.035-7.078 3.797-21.808-50.73-49.803-31.172 5.478h-.01zm-22.854 63.34-4.066 25.111 1.01.165 4.067-25.111-1.011-.165z"/><path fill="#000" d="m205.925 438.987-42.419-52.931.798-.636 42.041 52.449 165.89-30.784.195 1.005-166.505 30.897z"/></g><defs><clipPath id="a"><path fill="#fff" d="M0 0h523v525H0z"/></clipPath></defs></svg>